<?xml version="1.0" encoding="UTF-8" standalone="no"?><svg width="315" height="217" viewBox="0 0 315 217" xmlns="http://www.w3.org/2000/svg" xmlns:xlink="http://www.w3.org/1999/xlink"><svg width="315" height="130" viewBox="0 0 83.34375 34.395828" id="logo-mrozik" xmlns="http://www.w3.org/2000/svg"><defs><radialGradient xlink:href="#aa" id="ab" cx="4024.837" cy="1753.828" fx="4024.837" fy="1753.828" r="157.5" gradientTransform="matrix(.27805 0 0 .11548 -1098.359 -63.749)" gradientUnits="userSpaceOnUse"/><linearGradient id="aa"><stop offset="0" stop-color="#5c5c6c"/><stop offset="1" stop-color="#36363e"/></linearGradient></defs><g transform="translate(18.653 -120.523)"><path d="M-18.653 120.523v31.27a3.12 3.12 0 0 0 3.127 3.126h77.09a3.12 3.12 0 0 0 3.127-3.127v-31.269z" fill="url(#ab)"/><path style="line-height:1.25;-inkscape-font-specification:'Harlow Solid Italic, Italic Semi-Expanded';font-variant-ligatures:normal;font-variant-caps:normal;font-variant-numeric:normal;font-feature-settings:normal;text-align:start" d="M4.112 128.986c-.672 0-1.207.493-1.604 1.478l-4.55 11.196c-.817 2.002-1.57 3.396-2.258 4.183-.68.795-1.482 1.192-2.406 1.192-.772 0-1.38-.252-1.822-.756-.443-.497-.558-1.187-.665-2.052-.182-1.467-.861-1.71-1.869-1.65-1 .058-1.348 1.077-1.351 2.006 0 1.627.5 2.945 1.501 3.953 1.001 1.016 2.304 1.524 3.908 1.524 1.505 0 2.838-.45 4-1.352a7.874 7.874 0 0 0 1.959-2.223c.504-.848 1.238-2.456 2.2-4.825l2.796-6.898.321 1.42c.184.849.585 1.273 1.204 1.273.473 0 .974-.287 1.5-.86l2.212-2.372-4.209 10.863c-.32.764-.48 1.344-.48 1.742 0 .618.213 1.096.64 1.432.436.329 1.092.493 1.887.493H25.4c.672 0 1.191-.145 1.558-.435.374-.29.562-.696.562-1.215 0-.726-.531-1.09-1.593-1.09H7.874l5.348-14.128.264-.642a2.19 2.19 0 0 0 .183-.825c0-.397-.16-.733-.481-1.008-.313-.283-.699-.424-1.157-.424-.657 0-1.364.37-2.12 1.112l-3.438 3.38-.7-2.636c-.183-.687-.4-1.169-.653-1.444-.244-.275-.58-.412-1.008-.412z" font-style="italic" font-weight="400" font-stretch="semi-expanded" font-size="54.045" font-family="Harlow Solid Italic" letter-spacing="0" word-spacing="0" fill="#fdf7e7" stroke="#2a2533" stroke-width=".529"/><path d="M-10.784 138.56c.551-.84 1.122-1.688 2.072-2.424s2.17-1.415 3.442-1.34c1.273.077 2.385.97.797 1.806-1.588.835-2.843 2.221-3.467 3.052-.625.832-.768 1.254-1.451 1.532-.685.253-1.578-.135-1.73-.881-.165-.597.023-1.232.337-1.746-.137.265-.104.19 0 0zM16.022 138.532l-.39.962q-.527 1.284-1.375 1.284-.516 0-.86-.31-.343-.309-.343-.767 0-.264.252-.894l1.295-3.197q.47-1.158 1.33-1.158.847 0 1.042.802l.092.356q.069.275.206.343.138.07.676.07h2.682q1.501 0 1.501 1.053 0 1.456-1.902 1.456l-.126.114q-1.822 1.742-1.822 2.694 0 .95 1.054.95h1.444q1.455 0 1.455 1.01 0 .71-.515 1.1-.505.389-1.421.389H18.05q-1.145 0-1.879-.79-.722-.792-.722-2.052 0-.802.39-1.559.39-.756 1.375-1.856zM28.693 135.862q1.662 0 2.727 1.054 1.078 1.054 1.078 2.682 0 1.226-.562 2.44-.561 1.204-1.455 1.926-.596.47-1.238.653-.63.172-1.776.172-1.868 0-2.521-.447-1.536-1.054-1.536-3.117 0-2.177 1.57-3.77t3.713-1.593zm-.275 2.44q-.848 0-1.547.837t-.699 1.845q0 1.33 1.49 1.33.87 0 1.34-.539.78-.882.78-2.017 0-.653-.378-1.054-.379-.401-.986-.401z" style="line-height:1.25;-inkscape-font-specification:'Harlow Solid Italic, Italic Semi-Expanded';font-variant-ligatures:normal;font-variant-caps:normal;font-variant-numeric:normal;font-feature-settings:normal;text-align:start" font-style="italic" font-weight="400" font-stretch="semi-expanded" font-size="54.045" font-family="Harlow Solid Italic" letter-spacing="0" word-spacing="0" fill="#fdf7e7" stroke="#2a2533" stroke-width=".529"/><path d="M49.067 122.909a.137.137 0 0 0-.062.015.22.22 0 0 0-.152.212v1.255l-.834-.835a.143.143 0 0 0-.102-.042l-.018.001h-.018a.224.224 0 0 0-.158.066.222.222 0 0 0 0 .317l1.128 1.128v1.987l-2.88-2.827 1.01 3.907-1.722-.994-.413-1.54a.224.224 0 0 0-.41-.055v.017c0 .006 0 .008-.019.014-.018.03-.025.07-.018.107l.306 1.14-1.087-.627a.223.223 0 0 0-.259.025.149.149 0 0 0-.045.047l-.018.017c-.018.02-.018.04-.018.062a.225.225 0 0 0 .107.237l1.087.627-1.14.306a.14.14 0 0 0-.085.066v.015c0 .006 0 .009-.018.015a.247.247 0 0 0-.022.17c.033.12.155.191.274.159l1.541-.413 1.721.994-3.888 1.08 3.888 1.08-1.72.993-1.542-.413a.223.223 0 0 0-.274.159c-.018.06 0 .12.022.17 0 .006 0 .009.018.015v.015a.144.144 0 0 0 .085.066l1.14.305-1.087.628a.225.225 0 0 0-.107.237c0 .021 0 .042.018.062l.018.017c.018.02.026.036.045.047.07.062.174.075.259.025l1.087-.627-.306 1.14c-.018.038 0 .076.018.107 0 .006 0 .008.018.014v.017c.03.05.076.088.137.104a.223.223 0 0 0 .274-.158l.413-1.541 1.721-.994-1.008 3.907 2.879-2.827v1.987l-1.128 1.128a.222.222 0 0 0 0 .317.223.223 0 0 0 .158.066h.036a.145.145 0 0 0 .102-.04l.834-.836v1.255c0 .1.062.182.152.212.018.01.04.015.062.015h.02a.136.136 0 0 0 .062-.015.22.22 0 0 0 .152-.212v-1.255l.835.835a.137.137 0 0 0 .1.042l.017-.001h.018a.224.224 0 0 0 .16-.066.218.218 0 0 0 0-.317l-1.129-1.128v-1.987l2.88 2.827-1.01-3.907.453.262 1.269.732.412 1.54a.224.224 0 0 0 .411.055v-.017c0-.006 0-.008.018-.014.018-.031.023-.07.018-.107l-.305-1.14 1.087.627c.083.05.189.036.259-.025a.132.132 0 0 0 .045-.047l.018-.017c.018-.02.018-.04.018-.062a.225.225 0 0 0-.107-.237l-1.087-.628 1.14-.305a.142.142 0 0 0 .085-.066v-.015c0-.006 0-.01.018-.015a.237.237 0 0 0 .023-.17.224.224 0 0 0-.274-.159l-1.54.413-1.722-.994 3.888-1.08-3.888-1.08 1.721-.993 1.541.413a.223.223 0 0 0 .274-.159c.018-.06 0-.12-.023-.17 0-.006 0-.009-.018-.015v-.015a.137.137 0 0 0-.083-.066l-1.14-.305 1.087-.628a.225.225 0 0 0 .107-.237c0-.021 0-.043-.018-.062l-.018-.017c-.018-.02-.026-.036-.045-.047a.223.223 0 0 0-.26-.025l-1.086.627.305-1.14c.018-.038 0-.076-.018-.107 0-.006 0-.008-.018-.014v-.017a.222.222 0 0 0-.136-.104.223.223 0 0 0-.275.158l-.413 1.541-1.268.733-.453.261 1.01-3.907-2.88 2.827v-1.987l1.128-1.128a.218.218 0 0 0 0-.317.222.222 0 0 0-.159-.066h-.018-.019a.146.146 0 0 0-.1.04l-.836.836v-1.256a.222.222 0 0 0-.152-.211.138.138 0 0 0-.06-.015zm-1.283 4.413l1.069 1.05v.801l-.695-.4zm2.586 0l-.374 1.45-.695.401v-.801zm-2.435 1.839l.694.4-.694.401-1.444-.4zm2.285 0l1.443.4-1.443.401-.695-.4.196-.113zm-1.367.789v.802l-1.069 1.05.374-1.451zm.448 0l.694.4.375 1.451-1.069-1.05z" fill="#5ec2e7" stroke="#2a2533" stroke-width=".185" stroke-linecap="round" stroke-linejoin="round"/><path d="M55.44 129.146c-.772 0-1.333.428-1.684 1.284l-.127.31-4.798 11.588-3.363-.011 1.63-4.083c.206-.504.309-.879.309-1.123a1 1 0 0 0-.355-.768 1.167 1.167 0 0 0-.825-.32c-.78 0-1.345.43-1.697 1.294l-.126.321-1.89 4.653c0 .006 0 .01-.01.016l-5.128-.016 3.633-3.507c.48-.474.722-.943.722-1.41 0-.901-.531-1.352-1.593-1.352h-3.851c-.474 0-.875.15-1.203.447a1.38 1.38 0 0 0-.493 1.077c0 .688.416 1.032 1.25 1.032h.286l1.272-.046-3.748 3.61c-.511.496-.767.94-.767 1.33 0 .404.137.725.412.962.283.236.661.353 1.135.355l14.83.04c.611.002 1.085-.13 1.421-.39a1.31 1.31 0 0 0 .259-.259c.169-.186.32-.432.45-.755l1.284-3.174 2.658 3.976.138.207c.237.343.516.515.836.515.367 0 .696-.141.986-.424.298-.282.447-.6.447-.95 0-.222-.11-.505-.333-.849l-1.776-2.785 1.708-1.249.263-.195c.566-.42.849-.886.849-1.398 0-.305-.108-.561-.321-.768a1.11 1.11 0 0 0-.803-.309c-.382 0-.84.199-1.375.596l-2.578 1.914 2.922-7.197.126-.31c.122-.297.183-.56.183-.79 0-.298-.114-.554-.344-.768a1.167 1.167 0 0 0-.825-.32z" style="line-height:1.25;-inkscape-font-specification:'Harlow Solid Italic, Italic Semi-Expanded';font-variant-ligatures:normal;font-variant-caps:normal;font-variant-numeric:normal;font-feature-settings:normal;text-align:start" font-style="italic" font-weight="400" font-stretch="semi-expanded" font-size="54.045" font-family="Harlow Solid Italic" letter-spacing="0" word-spacing="0" fill="#fdf7e7" stroke="#2a2533" stroke-width=".529"/><rect width="5.47" height="2.795" x="30.439" y="145.95" ry="1.488" rx="1.488" fill="#fdf7e7" stroke="#2a2533" stroke-width=".529" stroke-linejoin="round"/></g></svg><svg width="52" height="87" viewBox="0 0 13.758333 23.01875" id="next" y="130" xmlns="http://www.w3.org/2000/svg"><g transform="matrix(-.40005 0 0 .40308 29.389 -104.04)" stroke-width=".946"><rect ry="4.133" y="258.766" x="39.732" height="55.794" width="33.069" opacity=".15"/><path d="M62.652 263.868h-.014c-.036 0-.07 0-.097.003a.357.357 0 0 0-.078.014c-.335.109-1.537 1.499-3.15 3.544-.404.512-.833 1.064-1.281 1.648a228.02 228.02 0 0 0-1.394 1.835 289.02 289.02 0 0 0-2.952 3.997c-.496.683-.99 1.368-1.473 2.045-.484.677-.959 1.346-1.416 1.998-.457.652-.898 1.285-1.314 1.892-.417.606-.81 1.185-1.172 1.727a91.798 91.798 0 0 0-.985 1.504v.001c-.292.457-.546.868-.756 1.222-.104.177-.198.34-.279.487-.08.148-.15.28-.206.395a3.052 3.052 0 0 0-.127.295c-.014.04-.026.077-.033.108a.363.363 0 0 0-.01.08.36.36 0 0 0 .01.08c.007.032.019.068.033.108.029.081.071.18.127.295.056.116.125.248.206.395.244.443.597 1.023 1.035 1.71.293.457.624.962.985 1.504.362.542.755 1.12 1.172 1.727.416.607.857 1.24 1.314 1.892a325.83 325.83 0 0 0 5.842 8.04c.478.636.945 1.251 1.393 1.835.448.584.877 1.136 1.28 1.647 1.615 2.046 2.816 3.437 3.15 3.545a.34.34 0 0 0 .079.014c.032.003.069.003.111.003a2.97 2.97 0 0 0 .284-.026c.041-.005.09-.013.135-.02l.184-.031c.221-.04.475-.091.77-.158l.004-.001.235-.057c.55-.13 1.196-.295 1.926-.494l.176-.047a.477.477 0 0 0 .254-.422.477.477 0 0 0-.072-.25c-.004-.003-.008-.01-.011-.013a56.2 56.2 0 0 1-.838-1.01c-.306-.377-.631-.784-.978-1.225l-.011-.014c-.338-.43-.69-.883-1.058-1.362l-.064-.083c-.363-.472-.734-.96-1.118-1.469l-.043-.056a274.721 274.721 0 0 1-2.376-3.199l-.284-.387c-.311-.427-.621-.852-.931-1.28l-.423-.588c-.29-.401-.575-.8-.858-1.196l-.29-.408c-.32-.45-.635-.895-.942-1.333l-.234-.335c-.29-.415-.576-.825-.85-1.221l-.406-.594c-.212-.31-.425-.621-.623-.915-.137-.203-.258-.387-.387-.58-.179-.27-.362-.542-.524-.79-.136-.21-.25-.39-.373-.583-.128-.2-.265-.41-.377-.59-.125-.201-.221-.365-.327-.542-.087-.145-.188-.308-.26-.435-.038-.066-.07-.124-.103-.185l-.106-.194-.061-.121c-.033-.066-.069-.135-.095-.191-.021-.048-.034-.084-.05-.125-.014-.035-.033-.077-.043-.107a.557.557 0 0 1-.03-.142c0-.004-.004-.012-.004-.015l.003-.016a.559.559 0 0 1 .03-.142c.01-.03.03-.072.044-.107.016-.041.029-.077.05-.125.026-.056.062-.125.095-.19l.061-.123.106-.193.102-.185c.073-.127.174-.29.261-.435.106-.177.202-.34.327-.542.112-.18.25-.39.377-.59.123-.193.237-.374.373-.583.162-.248.345-.52.524-.79.13-.193.25-.377.387-.58.198-.294.41-.605.623-.915.136-.198.265-.39.407-.594.273-.396.559-.806.85-1.221l.233-.335c.307-.438.622-.882.942-1.333l.29-.408c.283-.397.569-.795.858-1.196l.423-.587c.31-.429.62-.854.931-1.28.095-.13.189-.26.284-.388a311.469 311.469 0 0 1 2.324-3.13l.132-.175c.38-.503.747-.985 1.106-1.452l.02-.027c.378-.49.738-.954 1.084-1.393.348-.443.675-.853.982-1.232.304-.374.582-.709.838-1.009l.01-.014a.477.477 0 0 0 .073-.25.477.477 0 0 0-.254-.42l-.176-.048a59.081 59.081 0 0 0-1.926-.494c-.073-.017-.166-.042-.235-.057h-.003c-.296-.068-.55-.12-.77-.159-.065-.011-.127-.022-.185-.03a3.002 3.002 0 0 0-.42-.047z" opacity=".5"/></g></svg><svg width="32" height="32" viewBox="0 0 8.4666676 8.4666746" id="phone" x="104" y="130" xmlns="http://www.w3.org/2000/svg"><path d="M4.688 7.793c.418.197.977.431 1.6.471.039.002.075.004.114.004.418 0 .754-.144 1.028-.44 0-.001 0-.004.01-.008.097-.118.207-.223.323-.335.08-.075.16-.154.237-.234.358-.371.358-.843 0-1.202L6.99 5.044a.818.818 0 0 0-.59-.27.846.846 0 0 0-.598.268l-.601.599c-.055-.032-.113-.06-.166-.087a2.152 2.152 0 0 1-.185-.1c-.547-.346-1.044-.798-1.52-1.378a3.647 3.647 0 0 1-.513-.816c.158-.142.305-.291.448-.436.05-.052.102-.104.155-.156.18-.18.278-.39.278-.602 0-.212-.096-.421-.278-.602l-.5-.498C2.86.907 2.804.85 2.747.792a9.206 9.206 0 0 0-.34-.336.839.839 0 0 0-.592-.258.863.863 0 0 0-.598.26l-.628.625a1.283 1.283 0 0 0-.384.823c-.033.4.042.824.233 1.337.294.794.737 1.532 1.395 2.32.86.913 1.89 1.755 2.854 2.23zM.609 1.94a.882.882 0 0 1 .267-.569L1.501.75A.453.453 0 0 1 1.81.608a.43.43 0 0 1 .302.145c.113.104.218.213.333.328l.174.177.5.499c.105.103.158.209.158.312 0 .104-.053.21-.157.313l-.157.157c-.156.157-.302.306-.463.448 0 .004 0 .005-.01.01-.139.138-.117.27-.083.37 0 .006 0 .01.01.014.128.31.308.604.588.955.504.618 1.035 1.098 1.62 1.468.072.046.148.083.22.12.068.033.13.065.185.1.01.004.012.007.018.01.056.029.11.042.163.042a.357.357 0 0 0 .25-.114l.629-.625a.445.445 0 0 1 .307-.149c.127 0 .232.079.297.15l1.012 1.006c.202.2.2.418 0 .63-.07.075-.144.147-.223.222-.117.114-.24.231-.35.363a.924.924 0 0 1-.721.305c-.029 0-.06-.002-.088-.004-.55-.036-1.063-.25-1.447-.432a8.162 8.162 0 0 1-2.722-2.123c-.626-.751-1.048-1.45-1.326-2.199-.173-.46-.239-.83-.212-1.165z" fill="#fdf7e7" stroke="#fdf7e7" stroke-width=".397"/></svg><svg width="52" height="87" viewBox="0 0 13.758333 23.01875" id="prev" x="52" y="130" xmlns="http://www.w3.org/2000/svg"><g transform="matrix(.40005 0 0 .40308 -15.63 -104.04)" stroke-width=".946"><rect width="33.069" height="55.794" x="39.732" y="258.766" ry="4.133" opacity=".15"/><path d="M62.652 263.868h-.014c-.036 0-.07 0-.097.003a.357.357 0 0 0-.078.014c-.335.109-1.537 1.499-3.15 3.544-.404.512-.833 1.064-1.281 1.648a228.02 228.02 0 0 0-1.394 1.835 289.02 289.02 0 0 0-2.952 3.997c-.496.683-.99 1.368-1.473 2.045-.484.677-.959 1.346-1.416 1.998-.457.652-.898 1.285-1.314 1.892-.417.606-.81 1.185-1.172 1.727a91.798 91.798 0 0 0-.985 1.504v.001c-.292.457-.546.868-.756 1.222-.104.177-.198.34-.279.487-.08.148-.15.28-.206.395a3.052 3.052 0 0 0-.127.295c-.014.04-.026.077-.033.108a.363.363 0 0 0-.01.08.36.36 0 0 0 .01.08c.007.032.019.068.033.108.029.081.071.18.127.295.056.116.125.248.206.395.244.443.597 1.023 1.035 1.71.293.457.624.962.985 1.504.362.542.755 1.12 1.172 1.727.416.607.857 1.24 1.314 1.892a325.83 325.83 0 0 0 5.842 8.04c.478.636.945 1.251 1.393 1.835.448.584.877 1.136 1.28 1.647 1.615 2.046 2.816 3.437 3.15 3.545a.34.34 0 0 0 .079.014c.032.003.069.003.111.003a2.97 2.97 0 0 0 .284-.026c.041-.005.09-.013.135-.02l.184-.031c.221-.04.475-.091.77-.158l.004-.001.235-.057c.55-.13 1.196-.295 1.926-.494l.176-.047a.477.477 0 0 0 .254-.422.477.477 0 0 0-.072-.25c-.004-.003-.008-.01-.011-.013a56.2 56.2 0 0 1-.838-1.01c-.306-.377-.631-.784-.978-1.225l-.011-.014c-.338-.43-.69-.883-1.058-1.362l-.064-.083c-.363-.472-.734-.96-1.118-1.469l-.043-.056a274.721 274.721 0 0 1-2.376-3.199l-.284-.387c-.311-.427-.621-.852-.931-1.28l-.423-.588c-.29-.401-.575-.8-.858-1.196l-.29-.408c-.32-.45-.635-.895-.942-1.333l-.234-.335c-.29-.415-.576-.825-.85-1.221l-.406-.594c-.212-.31-.425-.621-.623-.915-.137-.203-.258-.387-.387-.58-.179-.27-.362-.542-.524-.79-.136-.21-.25-.39-.373-.583-.128-.2-.265-.41-.377-.59-.125-.201-.221-.365-.327-.542-.087-.145-.188-.308-.26-.435-.038-.066-.07-.124-.103-.185l-.106-.194-.061-.121c-.033-.066-.069-.135-.095-.191-.021-.048-.034-.084-.05-.125-.014-.035-.033-.077-.043-.107a.557.557 0 0 1-.03-.142c0-.004-.004-.012-.004-.015l.003-.016a.559.559 0 0 1 .03-.142c.01-.03.03-.072.044-.107.016-.041.029-.077.05-.125.026-.056.062-.125.095-.19l.061-.123.106-.193.102-.185c.073-.127.174-.29.261-.435.106-.177.202-.34.327-.542.112-.18.25-.39.377-.59.123-.193.237-.374.373-.583.162-.248.345-.52.524-.79.13-.193.25-.377.387-.58.198-.294.41-.605.623-.915.136-.198.265-.39.407-.594.273-.396.559-.806.85-1.221l.233-.335c.307-.438.622-.882.942-1.333l.29-.408c.283-.397.569-.795.858-1.196l.423-.587c.31-.429.62-.854.931-1.28.095-.13.189-.26.284-.388a311.469 311.469 0 0 1 2.324-3.13l.132-.175c.38-.503.747-.985 1.106-1.452l.02-.027c.378-.49.738-.954 1.084-1.393.348-.443.675-.853.982-1.232.304-.374.582-.709.838-1.009l.01-.014a.477.477 0 0 0 .073-.25.477.477 0 0 0-.254-.42l-.176-.048a59.081 59.081 0 0 0-1.926-.494c-.073-.017-.166-.042-.235-.057h-.003c-.296-.068-.55-.12-.77-.159-.065-.011-.127-.022-.185-.03a3.002 3.002 0 0 0-.42-.047z" opacity=".5"/></g></svg></svg>