<?xml version="1.0" encoding="UTF-8" standalone="no"?><svg width="138" height="87" viewBox="0 0 138 87" xmlns="http://www.w3.org/2000/svg" xmlns:xlink="http://www.w3.org/1999/xlink"><svg width="52" height="87" viewBox="0 0 13.758333 23.01875" id="next" xmlns="http://www.w3.org/2000/svg"><g transform="matrix(-.40005 0 0 .40308 29.389 -104.04)" stroke-width=".946"><rect ry="4.133" y="258.766" x="39.732" height="55.794" width="33.069" opacity=".15"/><path d="M62.652 263.868h-.014c-.036 0-.07 0-.097.003a.357.357 0 0 0-.078.014c-.335.109-1.537 1.499-3.15 3.544-.404.512-.833 1.064-1.281 1.648a228.02 228.02 0 0 0-1.394 1.835 289.02 289.02 0 0 0-2.952 3.997c-.496.683-.99 1.368-1.473 2.045-.484.677-.959 1.346-1.416 1.998-.457.652-.898 1.285-1.314 1.892-.417.606-.81 1.185-1.172 1.727a91.798 91.798 0 0 0-.985 1.504v.001c-.292.457-.546.868-.756 1.222-.104.177-.198.34-.279.487-.08.148-.15.28-.206.395a3.052 3.052 0 0 0-.127.295c-.014.04-.026.077-.033.108a.363.363 0 0 0-.01.08.36.36 0 0 0 .01.08c.007.032.019.068.033.108.029.081.071.18.127.295.056.116.125.248.206.395.244.443.597 1.023 1.035 1.71.293.457.624.962.985 1.504.362.542.755 1.12 1.172 1.727.416.607.857 1.24 1.314 1.892a325.83 325.83 0 0 0 5.842 8.04c.478.636.945 1.251 1.393 1.835.448.584.877 1.136 1.28 1.647 1.615 2.046 2.816 3.437 3.15 3.545a.34.34 0 0 0 .079.014c.032.003.069.003.111.003a2.97 2.97 0 0 0 .284-.026c.041-.005.09-.013.135-.02l.184-.031c.221-.04.475-.091.77-.158l.004-.001.235-.057c.55-.13 1.196-.295 1.926-.494l.176-.047a.477.477 0 0 0 .254-.422.477.477 0 0 0-.072-.25c-.004-.003-.008-.01-.011-.013a56.2 56.2 0 0 1-.838-1.01c-.306-.377-.631-.784-.978-1.225l-.011-.014c-.338-.43-.69-.883-1.058-1.362l-.064-.083c-.363-.472-.734-.96-1.118-1.469l-.043-.056a274.721 274.721 0 0 1-2.376-3.199l-.284-.387c-.311-.427-.621-.852-.931-1.28l-.423-.588c-.29-.401-.575-.8-.858-1.196l-.29-.408c-.32-.45-.635-.895-.942-1.333l-.234-.335c-.29-.415-.576-.825-.85-1.221l-.406-.594c-.212-.31-.425-.621-.623-.915-.137-.203-.258-.387-.387-.58-.179-.27-.362-.542-.524-.79-.136-.21-.25-.39-.373-.583-.128-.2-.265-.41-.377-.59-.125-.201-.221-.365-.327-.542-.087-.145-.188-.308-.26-.435-.038-.066-.07-.124-.103-.185l-.106-.194-.061-.121c-.033-.066-.069-.135-.095-.191-.021-.048-.034-.084-.05-.125-.014-.035-.033-.077-.043-.107a.557.557 0 0 1-.03-.142c0-.004-.004-.012-.004-.015l.003-.016a.559.559 0 0 1 .03-.142c.01-.03.03-.072.044-.107.016-.041.029-.077.05-.125.026-.056.062-.125.095-.19l.061-.123.106-.193.102-.185c.073-.127.174-.29.261-.435.106-.177.202-.34.327-.542.112-.18.25-.39.377-.59.123-.193.237-.374.373-.583.162-.248.345-.52.524-.79.13-.193.25-.377.387-.58.198-.294.41-.605.623-.915.136-.198.265-.39.407-.594.273-.396.559-.806.85-1.221l.233-.335c.307-.438.622-.882.942-1.333l.29-.408c.283-.397.569-.795.858-1.196l.423-.587c.31-.429.62-.854.931-1.28.095-.13.189-.26.284-.388a311.469 311.469 0 0 1 2.324-3.13l.132-.175c.38-.503.747-.985 1.106-1.452l.02-.027c.378-.49.738-.954 1.084-1.393.348-.443.675-.853.982-1.232.304-.374.582-.709.838-1.009l.01-.014a.477.477 0 0 0 .073-.25.477.477 0 0 0-.254-.42l-.176-.048a59.081 59.081 0 0 0-1.926-.494c-.073-.017-.166-.042-.235-.057h-.003c-.296-.068-.55-.12-.77-.159-.065-.011-.127-.022-.185-.03a3.002 3.002 0 0 0-.42-.047z" opacity=".5"/></g></svg><svg width="34" height="34" viewBox="0 0 8.9958343 8.9958413" id="phone" x="104" xmlns="http://www.w3.org/2000/svg"><path d="M2.093 5.827c.8.951 1.761 1.7 2.86 2.23.417.198.977.432 1.6.472.039.002.075.004.114.004.418 0 .754-.144 1.027-.44 0-.002 0-.005.01-.009.097-.117.208-.222.324-.334.079-.076.16-.154.237-.234.357-.372.357-.843 0-1.203L7.255 5.31a.818.818 0 0 0-.59-.271.846.846 0 0 0-.598.269l-.601.598c-.056-.031-.113-.06-.167-.086a2.152 2.152 0 0 1-.184-.1c-.548-.347-1.045-.798-1.52-1.379a3.647 3.647 0 0 1-.514-.816c.158-.142.306-.29.449-.436.05-.052.102-.104.154-.155.181-.181.279-.39.279-.602 0-.213-.096-.422-.279-.602l-.5-.499c-.06-.058-.114-.115-.172-.173a9.206 9.206 0 0 0-.34-.337.839.839 0 0 0-.591-.257.863.863 0 0 0-.598.26l-.628.625a1.283 1.283 0 0 0-.385.822c-.032.4.042.824.234 1.338.294.794.737 1.531 1.395 2.319zM.873 2.205a.882.882 0 0 1 .268-.568l.625-.622a.453.453 0 0 1 .308-.142.43.43 0 0 1 .303.145c.112.104.218.212.332.328l.175.177.5.498c.104.104.158.21.158.313 0 .104-.053.209-.158.313l-.156.157c-.156.157-.302.306-.463.448 0 .004 0 .005-.01.009-.14.139-.118.27-.084.371 0 .005 0 .01.01.013.129.31.309.604.589.955.504.619 1.034 1.099 1.619 1.468.072.047.15.084.221.12.068.034.13.066.185.1.01.005.011.008.018.011.055.028.11.042.163.042a.357.357 0 0 0 .25-.114l.628-.625a.445.445 0 0 1 .307-.15c.128 0 .232.08.297.15l1.013 1.006c.202.2.2.418 0 .63-.07.076-.144.148-.223.223-.118.114-.24.23-.351.363a.924.924 0 0 1-.72.304c-.03 0-.06-.002-.088-.004-.551-.035-1.063-.249-1.448-.431A8.162 8.162 0 0 1 2.42 5.569c-.627-.75-1.048-1.45-1.327-2.198C.92 2.91.855 2.54.882 2.205z" fill="#e9ddaf" stroke="#e9ddaf" stroke-width=".397"/></svg><svg width="52" height="87" viewBox="0 0 13.758333 23.01875" id="prev" x="52" xmlns="http://www.w3.org/2000/svg"><g transform="matrix(.40005 0 0 .40308 -15.63 -104.04)" stroke-width=".946"><rect width="33.069" height="55.794" x="39.732" y="258.766" ry="4.133" opacity=".15"/><path d="M62.652 263.868h-.014c-.036 0-.07 0-.097.003a.357.357 0 0 0-.078.014c-.335.109-1.537 1.499-3.15 3.544-.404.512-.833 1.064-1.281 1.648a228.02 228.02 0 0 0-1.394 1.835 289.02 289.02 0 0 0-2.952 3.997c-.496.683-.99 1.368-1.473 2.045-.484.677-.959 1.346-1.416 1.998-.457.652-.898 1.285-1.314 1.892-.417.606-.81 1.185-1.172 1.727a91.798 91.798 0 0 0-.985 1.504v.001c-.292.457-.546.868-.756 1.222-.104.177-.198.34-.279.487-.08.148-.15.28-.206.395a3.052 3.052 0 0 0-.127.295c-.014.04-.026.077-.033.108a.363.363 0 0 0-.01.08.36.36 0 0 0 .01.08c.007.032.019.068.033.108.029.081.071.18.127.295.056.116.125.248.206.395.244.443.597 1.023 1.035 1.71.293.457.624.962.985 1.504.362.542.755 1.12 1.172 1.727.416.607.857 1.24 1.314 1.892a325.83 325.83 0 0 0 5.842 8.04c.478.636.945 1.251 1.393 1.835.448.584.877 1.136 1.28 1.647 1.615 2.046 2.816 3.437 3.15 3.545a.34.34 0 0 0 .079.014c.032.003.069.003.111.003a2.97 2.97 0 0 0 .284-.026c.041-.005.09-.013.135-.02l.184-.031c.221-.04.475-.091.77-.158l.004-.001.235-.057c.55-.13 1.196-.295 1.926-.494l.176-.047a.477.477 0 0 0 .254-.422.477.477 0 0 0-.072-.25c-.004-.003-.008-.01-.011-.013a56.2 56.2 0 0 1-.838-1.01c-.306-.377-.631-.784-.978-1.225l-.011-.014c-.338-.43-.69-.883-1.058-1.362l-.064-.083c-.363-.472-.734-.96-1.118-1.469l-.043-.056a274.721 274.721 0 0 1-2.376-3.199l-.284-.387c-.311-.427-.621-.852-.931-1.28l-.423-.588c-.29-.401-.575-.8-.858-1.196l-.29-.408c-.32-.45-.635-.895-.942-1.333l-.234-.335c-.29-.415-.576-.825-.85-1.221l-.406-.594c-.212-.31-.425-.621-.623-.915-.137-.203-.258-.387-.387-.58-.179-.27-.362-.542-.524-.79-.136-.21-.25-.39-.373-.583-.128-.2-.265-.41-.377-.59-.125-.201-.221-.365-.327-.542-.087-.145-.188-.308-.26-.435-.038-.066-.07-.124-.103-.185l-.106-.194-.061-.121c-.033-.066-.069-.135-.095-.191-.021-.048-.034-.084-.05-.125-.014-.035-.033-.077-.043-.107a.557.557 0 0 1-.03-.142c0-.004-.004-.012-.004-.015l.003-.016a.559.559 0 0 1 .03-.142c.01-.03.03-.072.044-.107.016-.041.029-.077.05-.125.026-.056.062-.125.095-.19l.061-.123.106-.193.102-.185c.073-.127.174-.29.261-.435.106-.177.202-.34.327-.542.112-.18.25-.39.377-.59.123-.193.237-.374.373-.583.162-.248.345-.52.524-.79.13-.193.25-.377.387-.58.198-.294.41-.605.623-.915.136-.198.265-.39.407-.594.273-.396.559-.806.85-1.221l.233-.335c.307-.438.622-.882.942-1.333l.29-.408c.283-.397.569-.795.858-1.196l.423-.587c.31-.429.62-.854.931-1.28.095-.13.189-.26.284-.388a311.469 311.469 0 0 1 2.324-3.13l.132-.175c.38-.503.747-.985 1.106-1.452l.02-.027c.378-.49.738-.954 1.084-1.393.348-.443.675-.853.982-1.232.304-.374.582-.709.838-1.009l.01-.014a.477.477 0 0 0 .073-.25.477.477 0 0 0-.254-.42l-.176-.048a59.081 59.081 0 0 0-1.926-.494c-.073-.017-.166-.042-.235-.057h-.003c-.296-.068-.55-.12-.77-.159-.065-.011-.127-.022-.185-.03a3.002 3.002 0 0 0-.42-.047z" opacity=".5"/></g></svg></svg>