<?xml version="1.0" encoding="UTF-8" standalone="no"?>
<!-- Created with Inkscape (http://www.inkscape.org/) -->

<svg
   xmlns:dc="http://purl.org/dc/elements/1.1/"
   xmlns:cc="http://creativecommons.org/ns#"
   xmlns:rdf="http://www.w3.org/1999/02/22-rdf-syntax-ns#"
   xmlns:svg="http://www.w3.org/2000/svg"
   xmlns="http://www.w3.org/2000/svg"
   xmlns:sodipodi="http://sodipodi.sourceforge.net/DTD/sodipodi-0.dtd"
   xmlns:inkscape="http://www.inkscape.org/namespaces/inkscape"
   width="74"
   height="74"
   viewBox="0 0 19.579166 19.579168"
   version="1.1"
   id="svg829"
   sodipodi:docname="chicken.svg"
   inkscape:version="0.92.2 (5c3e80d, 2017-08-06)">
  <defs
     id="defs823" />
  <sodipodi:namedview
     id="base"
     pagecolor="#ffffff"
     bordercolor="#666666"
     borderopacity="1.0"
     inkscape:pageopacity="0.0"
     inkscape:pageshadow="2"
     inkscape:zoom="5.6568542"
     inkscape:cx="47.729045"
     inkscape:cy="24.48904"
     inkscape:document-units="px"
     inkscape:current-layer="layer1"
     showgrid="false"
     inkscape:snap-others="false"
     inkscape:object-nodes="false"
     showborder="true"
     inkscape:window-width="1680"
     inkscape:window-height="987"
     inkscape:window-x="-8"
     inkscape:window-y="-8"
     inkscape:window-maximized="1"
     inkscape:pagecheckerboard="true"
     units="px"
     fit-margin-top="1"
     fit-margin-left="1"
     fit-margin-right="1"
     fit-margin-bottom="1" />
  <metadata
     id="metadata826">
    <rdf:RDF>
      <cc:Work
         rdf:about="">
        <dc:format>image/svg+xml</dc:format>
        <dc:type
           rdf:resource="http://purl.org/dc/dcmitype/StillImage" />
        <dc:title></dc:title>
      </cc:Work>
    </rdf:RDF>
  </metadata>
  <g
     inkscape:label="Layer 1"
     inkscape:groupmode="layer"
     id="layer1"
     transform="translate(11.902538,-125.02086)">
    <path
       inkscape:connector-curvature="0"
       id="path1077"
       d="m 1.7566453,125.2993 c -1.44909997,0 -2.8981,0.5517 -4.0018001,1.6554 -0.5727999,0.5729 -1.2412001,1.6058 -1.8823001,2.7613 -0.6409999,1.1554 -1.2395999,2.4224 -1.6095998,3.4323 -0.3753001,1.0244 -0.461,1.8655 -0.2939,2.5961 0.042,0.1832 0.1168998,0.3432 0.2104999,0.485 l -1.9258,1.9259 c -0.4315,-0.3279 -0.9492999,-0.4919 -1.4671999,-0.4919 -0.4957,0 -0.9913003,0.1504 -1.4113003,0.4508 0,0 0,0 -0.01,0 -0.012,0.01 -0.024,0.017 -0.036,0.026 0,0 -0.01,0.01 -0.014,0.01 -0.01,0.01 -0.02,0.015 -0.03,0.023 -0.01,0 -0.012,0.01 -0.018,0.014 -0.01,0.01 -0.017,0.014 -0.026,0.021 -0.01,0.01 -0.015,0.012 -0.022,0.018 -0.01,0.01 -0.015,0.013 -0.023,0.019 -0.01,0.01 -0.017,0.015 -0.025,0.022 -0.01,0.01 -0.012,0.011 -0.018,0.016 -0.01,0.01 -0.02,0.019 -0.03,0.028 0,0 -0.01,0.01 -0.014,0.013 -0.014,0.014 -0.029,0.028 -0.043,0.042 -0.015,0.015 -0.029,0.03 -0.043,0.045 -0.029,0.03 -0.056,0.061 -0.083,0.092 -0.013,0.016 -0.027,0.031 -0.039,0.047 -0.013,0.016 -0.026,0.032 -0.038,0.048 -0.013,0.016 -0.025,0.032 -0.037,0.049 v 1e-4 c -0.012,0.016 -0.024,0.033 -0.035,0.049 v 0 c -0.046,0.066 -0.089,0.1344 -0.1272,0.204 v 1e-4 c -0.029,0.052 -0.056,0.1053 -0.081,0.1591 v 10e-5 c -0.01,0.018 -0.016,0.036 -0.024,0.054 -0.016,0.036 -0.03,0.073 -0.044,0.1095 -0.01,0.018 -0.014,0.037 -0.02,0.055 -0.026,0.074 -0.048,0.1492 -0.066,0.2251 0,0.019 -0.01,0.038 -0.013,0.057 -0.01,0.038 -0.016,0.076 -0.022,0.1148 0,0.019 -0.01,0.038 -0.01,0.058 v 0 c -0.011,0.077 -0.018,0.1545 -0.022,0.232 0,0.058 0,0.1165 0,0.1748 5e-4,0.019 0,0.039 0,0.058 0,0 10e-5,0 2e-4,0 0,0.076 0.011,0.1527 0.022,0.2286 0.01,0.039 0.012,0.077 0.019,0.1152 0,0.019 0.01,0.038 0.012,0.057 0.017,0.076 0.037,0.1518 0.061,0.2264 0.01,0.019 0.012,0.037 0.019,0.056 0.013,0.037 0.027,0.074 0.041,0.1104 0.01,0.018 0.015,0.036 0.023,0.054 v 0 c 0.01,0.018 0.016,0.036 0.024,0.054 v 1e-4 c 0.01,0.018 0.017,0.036 0.026,0.053 0.01,0.018 0.018,0.035 0.027,0.053 0.01,0.018 0.019,0.035 0.028,0.053 v 1e-4 c 0.01,0.017 0.02,0.035 0.03,0.052 0.1015,0.1721 0.226,0.3343 0.3735,0.482 0.02,0.02 0.04,0.039 0.06,0.058 0,0 0,0 0,0 0.328,0.3046 0.7208,0.5015 1.1328003,0.5906 0.1,0.4463 0.3158999,0.8596 0.6410999,1.1859 a 0.32850564,0.32850564 0 0 0 7.012e-4,0 c 0.9444998,0.9444 2.4856998,0.9445 3.4300999,0 0.8649999,-0.8649 0.9280998,-2.2252 0.2087999,-3.1744 l 1.9334001,-1.9332 c 0.1418,0.093 0.3017999,0.1685 0.4849,0.2104 0.7306998,0.1672 1.5717,0.081 2.59610003,-0.2938 1.0099,-0.37 2.27689997,-0.9687 3.43239997,-1.6096 1.1554,-0.6411 2.1882,-1.3097 2.7611,-1.8826 2.2073,-2.2072 2.2073,-5.7959 0,-8.0031 -1.103601,-1.1037 -2.552501,-1.6554 -4.001401,-1.6554 z m 0,0.6528 c 1.2794,0 2.5589,0.4891 3.5369,1.4672 1.9563,1.9562 1.9563,5.1179 0,7.0741 -0.468,0.468 -1.4866,1.1463 -2.6153,1.7724 -1.1287,0.6262 -2.37859997,1.2152 -3.33969997,1.5673 -0.94660003,0.3468 -1.64620023,0.4024 -2.22360023,0.2703 -0.2292998,-0.052 -0.4119999,-0.2038 -0.6115,-0.4348 -0.1995,-0.2309 -0.3971999,-0.5301 -0.6631998,-0.7961 -0.2659001,-0.2659 -0.5651,-0.4636 -0.796,-0.6631 -0.2309,-0.1995 -0.3823002,-0.3823 -0.4348001,-0.6116 -0.1320999,-0.5774 -0.076,-1.2769 0.2703999,-2.2235 0.3521001,-0.9611 0.9410002,-2.211 1.5672001,-3.3397 0.6262,-1.1287 1.3044001,-2.1473 1.7723999,-2.6153 0.97810023,-0.9781 2.25760023,-1.4672 3.5372002,-1.4672 z m -0.202,0.8036 a 0.31775387,0.31775387 0 0 0 -0.2294,0.093 0.31775387,0.31775387 0 0 0 0,0.4494 0.31775387,0.31775387 0 0 0 0.4495,0 0.31775387,0.31775387 0 0 0 0,-0.4494 0.31775387,0.31775387 0 0 0 -0.2201,-0.093 z m 1.4721,0.2271 a 0.34429848,0.34429848 0 0 0 -0.2485,0.1008 0.34429848,0.34429848 0 0 0 0,0.4869 0.34429848,0.34429848 0 0 0 0.4869,0 0.34429848,0.34429848 0 0 0 0,-0.4869 0.34429848,0.34429848 0 0 0 -0.2384,-0.1008 z m -3.29419997,0.2557 a 0.34429848,0.34429848 0 0 0 -0.2485,0.1008 0.34429848,0.34429848 0 0 0 0,0.4869 0.34429848,0.34429848 0 0 0 0.4869,0 0.34429848,0.34429848 0 0 0 0,-0.4869 0.34429848,0.34429848 0 0 0 -0.2384,-0.1008 z m 1.1653,0.8526 a 0.34429848,0.34429848 0 0 0 -0.2484,0.1008 0.34429848,0.34429848 0 0 0 0,0.4869 0.34429848,0.34429848 0 0 0 0.48689997,0 0.34429848,0.34429848 0 0 0 0,-0.4869 0.34429848,0.34429848 0 0 0 -0.23849997,-0.1008 z m 1.47789997,0.064 a 0.34429848,0.34429848 0 0 0 -0.2484,0.1008 0.34429848,0.34429848 0 0 0 0,0.4869 0.34429848,0.34429848 0 0 0 0.4869,0 0.34429848,0.34429848 0 0 0 0,-0.4869 0.34429848,0.34429848 0 0 0 -0.2385,-0.1008 z m -7.7520002,8.5594 c 0.2715001,0.2334 0.5529001,0.4237 0.7521001,0.6229 0.1991,0.1992 0.3894,0.4804 0.6228001,0.7519 l -2.1217001,2.1218 a 0.32850564,0.32850564 0 0 0 0,0.4646 c 0.6934001,0.6934 0.6934001,1.8078 0,2.5012 -0.6933999,0.6934 -1.8076,0.6934 -2.5009999,0 -0.19,-0.1907 -0.3324,-0.421 -0.4191,-0.6723 0.5636,-0.039 1.1159,-0.2733 1.5448999,-0.7023 a 0.32852191,0.32852191 0 0 0 -0.4645001,-0.4647 c -0.3900998,0.3902 -0.9133998,0.5608 -1.4200998,0.512 a 0.32850564,0.32850564 0 0 0 -0.034,-0.01 c -0.3962,-0.046 -0.7651003,-0.2242 -1.0472003,-0.5062 -0.6934,-0.6934 -0.6934,-1.8076 0,-2.501 0.011,-0.011 0.022,-0.021 0.033,-0.032 10e-5,-1e-4 2e-4,-1e-4 2.99e-4,-2e-4 0.011,-0.01 0.022,-0.021 0.033,-0.031 10e-5,-1e-4 2e-4,-2e-4 2.99e-4,-2.9e-4 0.011,-0.01 0.022,-0.02 0.034,-0.03 v 0 c 0.012,-0.01 0.023,-0.019 0.034,-0.029 10e-5,0 2e-4,-1e-4 2.99e-4,-2e-4 0.011,-0.01 0.023,-0.019 0.035,-0.028 0.6951002,-0.5393 1.6921002,-0.4894 2.3314,0.1498 a 0.32850564,0.32850564 0 0 0 0.035,0.031 0.32850564,0.32850564 0 0 0 0.4665998,-0.068 z"
       style="color:#000000;font-style:normal;font-variant:normal;font-weight:normal;font-stretch:normal;font-size:medium;line-height:normal;font-family:sans-serif;font-variant-ligatures:normal;font-variant-position:normal;font-variant-caps:normal;font-variant-numeric:normal;font-variant-alternates:normal;font-feature-settings:normal;text-indent:0;text-align:start;text-decoration:none;text-decoration-line:none;text-decoration-style:solid;text-decoration-color:#000000;letter-spacing:normal;word-spacing:normal;text-transform:none;writing-mode:lr-tb;direction:ltr;text-orientation:mixed;dominant-baseline:auto;baseline-shift:baseline;text-anchor:start;white-space:normal;shape-padding:0;clip-rule:nonzero;display:inline;overflow:visible;visibility:visible;opacity:1;isolation:auto;mix-blend-mode:normal;color-interpolation:sRGB;color-interpolation-filters:linearRGB;solid-color:#000000;solid-opacity:1;vector-effect:none;fill:#ffffff;fill-opacity:1;fill-rule:nonzero;stroke:none;stroke-width:0.65694559;stroke-linecap:round;stroke-linejoin:round;stroke-miterlimit:4;stroke-dasharray:none;stroke-dashoffset:0;stroke-opacity:1;color-rendering:auto;image-rendering:auto;shape-rendering:auto;text-rendering:auto;enable-background:accumulate" />
  </g>
</svg>
