<?xml version="1.0" encoding="UTF-8" standalone="no"?>
<!-- Created with Inkscape (http://www.inkscape.org/) -->

<svg
   xmlns:dc="http://purl.org/dc/elements/1.1/"
   xmlns:cc="http://creativecommons.org/ns#"
   xmlns:rdf="http://www.w3.org/1999/02/22-rdf-syntax-ns#"
   xmlns:svg="http://www.w3.org/2000/svg"
   xmlns="http://www.w3.org/2000/svg"
   xmlns:sodipodi="http://sodipodi.sourceforge.net/DTD/sodipodi-0.dtd"
   xmlns:inkscape="http://www.inkscape.org/namespaces/inkscape"
   width="58"
   height="74"
   viewBox="0 0 15.345832 19.579169"
   version="1.1"
   id="svg829"
   sodipodi:docname="fries.svg"
   inkscape:version="0.92.2 (5c3e80d, 2017-08-06)">
  <defs
     id="defs823" />
  <sodipodi:namedview
     id="base"
     pagecolor="#ffffff"
     bordercolor="#666666"
     borderopacity="1.0"
     inkscape:pageopacity="0.0"
     inkscape:pageshadow="2"
     inkscape:zoom="8"
     inkscape:cx="14.322065"
     inkscape:cy="34.268656"
     inkscape:document-units="px"
     inkscape:current-layer="layer1"
     showgrid="false"
     inkscape:snap-others="false"
     inkscape:object-nodes="false"
     showborder="true"
     inkscape:window-width="1680"
     inkscape:window-height="987"
     inkscape:window-x="-8"
     inkscape:window-y="-8"
     inkscape:window-maximized="1"
     inkscape:pagecheckerboard="true"
     units="px"
     fit-margin-top="1"
     fit-margin-left="1"
     fit-margin-bottom="1"
     fit-margin-right="1" />
  <metadata
     id="metadata826">
    <rdf:RDF>
      <cc:Work
         rdf:about="">
        <dc:format>image/svg+xml</dc:format>
        <dc:type
           rdf:resource="http://purl.org/dc/dcmitype/StillImage" />
        <dc:title></dc:title>
      </cc:Work>
    </rdf:RDF>
  </metadata>
  <g
     inkscape:label="Layer 1"
     inkscape:groupmode="layer"
     id="layer1"
     transform="translate(-13.684429,-138.22917)">
    <path
       inkscape:connector-curvature="0"
       id="path1073"
       d="m 22.293227,138.49381 -1.6836,0.0563 a 0.32697336,0.32697336 0 0 0 -0.3168,0.30488 l -0.312,4.44451 -0.6853,-0.009 -0.01,-2.61472 a 0.32697336,0.32697336 0 0 0 -0.269702,-0.32038 l -1.6758,-0.30282 a 0.32697336,0.32697336 0 0 0 -0.064,-0.004 h -5.03e-4 a 0.32697336,0.32697336 0 0 0 -0.319897,0.32658 l 0.012,5.06564 -0.741,-3.32938 a 0.32697336,0.32697336 0 0 0 -0.3333,-0.25578 h -5e-4 a 0.32697336,0.32697336 0 0 0 -0.055,0.008 l -1.6308,0.35344 a 0.32697336,0.32697336 0 0 0 -0.2502,0.39067 l 0.953,4.28483 h -0.4072 a 0.32697336,0.32697336 0 0 0 -0.3225,0.38498 l 1.7771,9.99536 a 0.32697336,0.32697336 0 0 0 0.3674,0.26768 c 0,0 2.2069,-0.31057 4.8827,-0.31057 2.675901,0 4.880601,0.31057 4.880601,0.31057 a 0.32697336,0.32697336 0 0 0 0.366899,-0.26768 l 1.777601,-9.99536 a 0.32697336,0.32697336 0 0 0 -0.3225,-0.38498 h -0.2852 l 1.207099,-4.47861 a 0.32697336,0.32697336 0 0 0 -0.265599,-0.40772 l -1.662301,-0.26405 a 0.32697336,0.32697336 0 0 0 -0.066,-0.004 h -6.08e-4 a 0.32697336,0.32697336 0 0 0 -0.300691,0.24184 l -0.8759,3.24669 -0.401501,-5.60562 a 0.32697336,0.32697336 0 0 0 -0.326,-0.30488 h -5.02e-4 a 0.32697336,0.32697336 0 0 0 -0.054,0.006 l -1.660397,0.28886 a 0.32697336,0.32697336 0 0 0 -0.2697,0.3457 l 0.109001,1.52749 -0.608101,-0.13487 0.1756,-2.5062 a 0.32697336,0.32697336 0 0 0 -0.3358,-0.34932 z m -0.3421,0.66608 -0.146299,2.08557 a 0.32697336,0.32697336 0 0 0 -0.236601,0.28938 l -0.525099,6.43294 -0.471801,-3.73554 0.3545,-5.03721 z m 2.685,0.86709 0.497,6.9285 a 0.32697336,0.32697336 0 0 0 -0.1276,0.20205 c -0.077,0.40344 -0.356099,0.79492 -0.8019,1.12443 l -0.3953,-5.53484 0.064,-0.79423 a 0.32697336,0.32697336 0 0 0 -0.142601,-0.29713 l -0.1039,-1.45101 z m -7.0225,0.73998 1.021,0.18397 0.01,2.32999 -0.1643,-0.002 a 0.32697336,0.32697336 0 0 0 -0.3282,0.36896 l 0.6289,4.96952 c -0.056,-0.0272 -0.1128,-0.0537 -0.1659,-0.0827 -0.4445,-0.24274 -0.7753,-0.54022 -0.9798,-0.85987 -0.049,-0.0769 -0.09,-0.15496 -0.1239,-0.23409 0.035,0.079 0.075,0.15719 0.1239,0.23409 z m 4.5757,1.19523 1.0076,0.22272 -0.5534,6.78639 c -0.326399,0.0783 -0.6751,0.13087 -1.0381,0.15347 z m 4.906001,0.47076 1.0158,0.16225 -1.1595,4.29672 h -1.0578 z m -11.431501,0.13693 0.9607,4.32204 h -1.0428 l -0.912,-4.10708 z m 4.5189,0.73326 a 0.32697336,0.32697336 0 0 1 0.03,0.003 0.32697336,0.32697336 0 0 1 0.032,0.006 0.32697336,0.32697336 0 0 0 -0.032,-0.006 0.32697336,0.32697336 0 0 0 -0.03,-0.003 z m 0.1018,0.0217 a 0.32697336,0.32697336 0 0 1 0.018,0.008 0.32697336,0.32697336 0 0 0 -0.018,-0.008 z m 0.028,0.0129 a 0.32697336,0.32697336 0 0 1 0.018,0.009 0.32697336,0.32697336 0 0 0 -0.018,-0.009 z m 0.074,0.0512 a 0.32697336,0.32697336 0 0 1 0.022,0.0222 0.32697336,0.32697336 0 0 0 -0.022,-0.0222 z m 0.024,0.0243 a 0.32697336,0.32697336 0 0 1 0.019,0.0238 0.32697336,0.32697336 0 0 1 0.016,0.0243 0.32697336,0.32697336 0 0 0 -0.016,-0.0243 0.32697336,0.32697336 0 0 0 -0.019,-0.0238 z m 0.055,0.0884 a 0.32697336,0.32697336 0 0 1 0.01,0.0202 0.32697336,0.32697336 0 0 0 -0.01,-0.0202 z m -1.6225,0.43716 1.033,0.014 0.65,5.14677 c -0.373501,-0.0405 -0.729201,-0.11169 -1.056701,-0.21083 z m -1.7197,2.95474 a 0.32697336,0.32697336 0 0 1 0.012,0.001 0.32697336,0.32697336 0 0 0 -0.012,-0.001 z m 0.201,0.0935 a 0.32697336,0.32697336 0 0 1 0.018,0.0196 0.32697336,0.32697336 0 0 0 -0.018,-0.0196 z m 6.1332,0.046 0.1157,1.61895 c -0.082,0.0383 -0.1687,0.0742 -0.2568,0.10852 z m -6.0603,0.0641 a 0.32697336,0.32697336 0 0 1 0.01,0.0207 0.32697336,0.32697336 0 0 0 -0.01,-0.0207 z m 0.011,0.0305 a 0.32697336,0.32697336 0 0 1 0.01,0.03 0.32697336,0.32697336 0 0 0 -0.01,-0.03 z m 0.051,0.1912 c 0.01,0.0232 0.016,0.0462 0.025,0.0692 -0.01,-0.0231 -0.018,-0.046 -0.025,-0.0692 z m -2.5631,0.22737 h 2.0096 c 0.2222,0.6375 0.7012,1.18507 1.3926,1.56263 0.7929,0.43289 1.8087,0.68317 2.9103,0.68365 1.102101,-4.5e-4 2.1186,-0.25085 2.9119,-0.68365 0.692,-0.37748 1.1703,-0.9249 1.3926,-1.56263 h 1.637601 a 0.32697336,0.32697336 0 0 0 0.098,0 h 0.272201 l -1.658201,9.32566 c -0.260999,-0.0352 -2.101,-0.29661 -4.6538,-0.29661 -2.5527,0 -4.3949,0.26141 -4.6558,0.29661 z m 1.3792,0.97148 a 0.26157868,0.26157868 0 0 0 -0.025,0.001 0.26157868,0.26157868 0 0 0 -0.2346,0.30849 l 0.7835,4.45691 a 0.26157868,0.26157868 0 1 0 0.5136,-0.0899 l -0.7813,-4.4564 a 0.26157868,0.26157868 0 0 0 -0.2558,-0.22013 z m 0.992101,5.58599 a 0.26157868,0.26157868 0 0 0 -0.025,0.001 0.26157868,0.26157868 0 0 0 -0.2346,0.31056 l 0.1778,1.01334 a 0.2618928,0.2618928 0 1 0 0.5156,-0.0915 l -0.1777,-1.01385 a 0.26157868,0.26157868 0 0 0 -0.255799,-0.21961 z"
       style="color:#000000;font-style:normal;font-variant:normal;font-weight:normal;font-stretch:normal;font-size:medium;line-height:normal;font-family:sans-serif;font-variant-ligatures:normal;font-variant-position:normal;font-variant-caps:normal;font-variant-numeric:normal;font-variant-alternates:normal;font-feature-settings:normal;text-indent:0;text-align:start;text-decoration:none;text-decoration-line:none;text-decoration-style:solid;text-decoration-color:#000000;letter-spacing:normal;word-spacing:normal;text-transform:none;writing-mode:lr-tb;direction:ltr;text-orientation:mixed;dominant-baseline:auto;baseline-shift:baseline;text-anchor:start;white-space:normal;shape-padding:0;clip-rule:nonzero;display:inline;overflow:visible;visibility:visible;opacity:1;isolation:auto;mix-blend-mode:normal;color-interpolation:sRGB;color-interpolation-filters:linearRGB;solid-color:#000000;solid-opacity:1;vector-effect:none;fill:#ffffff;fill-opacity:1;fill-rule:nonzero;stroke:none;stroke-width:0.65388137;stroke-linecap:round;stroke-linejoin:round;stroke-miterlimit:4;stroke-dasharray:none;stroke-dashoffset:0;stroke-opacity:1;color-rendering:auto;image-rendering:auto;shape-rendering:auto;text-rendering:auto;enable-background:accumulate" />
  </g>
</svg>
