<?xml version="1.0" encoding="UTF-8" standalone="no"?>
<!-- Created with Inkscape (http://www.inkscape.org/) -->

<svg
   xmlns:dc="http://purl.org/dc/elements/1.1/"
   xmlns:cc="http://creativecommons.org/ns#"
   xmlns:rdf="http://www.w3.org/1999/02/22-rdf-syntax-ns#"
   xmlns:svg="http://www.w3.org/2000/svg"
   xmlns="http://www.w3.org/2000/svg"
   xmlns:sodipodi="http://sodipodi.sourceforge.net/DTD/sodipodi-0.dtd"
   xmlns:inkscape="http://www.inkscape.org/namespaces/inkscape"
   width="402"
   height="50"
   viewBox="0 0 106.3625 13.229168"
   version="1.1"
   id="svg829"
   sodipodi:docname="frozen-group-end.svg"
   inkscape:version="0.92.2 (5c3e80d, 2017-08-06)">
  <defs
     id="defs823" />
  <sodipodi:namedview
     id="base"
     pagecolor="#ffffff"
     bordercolor="#666666"
     borderopacity="1.0"
     inkscape:pageopacity="0.0"
     inkscape:pageshadow="2"
     inkscape:zoom="3.1500002"
     inkscape:cx="200.99999"
     inkscape:cy="24.999834"
     inkscape:document-units="px"
     inkscape:current-layer="layer1"
     showgrid="false"
     inkscape:snap-others="false"
     inkscape:object-nodes="false"
     showborder="true"
     inkscape:window-width="1680"
     inkscape:window-height="987"
     inkscape:window-x="-8"
     inkscape:window-y="-8"
     inkscape:window-maximized="1"
     units="px"
     fit-margin-top="1"
     fit-margin-left="1"
     fit-margin-right="1"
     fit-margin-bottom="1"
     inkscape:pagecheckerboard="true" />
  <metadata
     id="metadata826">
    <rdf:RDF>
      <cc:Work
         rdf:about="">
        <dc:format>image/svg+xml</dc:format>
        <dc:type
           rdf:resource="http://purl.org/dc/dcmitype/StillImage" />
        <dc:title></dc:title>
      </cc:Work>
    </rdf:RDF>
  </metadata>
  <g
     inkscape:label="Layer 1"
     inkscape:groupmode="layer"
     id="layer1"
     transform="translate(58.472919,-98.033289)">
    <g
       transform="translate(-280.97016,94.691156)"
       id="g5334">
      <path
         style="fill:none;stroke:#ffffff;stroke-width:0.92604166;stroke-linecap:round;stroke-linejoin:round;stroke-miterlimit:4;stroke-dasharray:none;stroke-opacity:1"
         d="m 223.23144,9.4331066 h 46.96221 l 5.47781,-5.3633 5.4778,5.3633 h 46.97628"
         id="path5328"
         inkscape:connector-curvature="0"
         sodipodi:nodetypes="ccccc" />
      <path
         style="color:#000000;font-style:normal;font-variant:normal;font-weight:normal;font-stretch:normal;font-size:medium;line-height:normal;font-family:sans-serif;font-variant-ligatures:normal;font-variant-position:normal;font-variant-caps:normal;font-variant-numeric:normal;font-variant-alternates:normal;font-feature-settings:normal;text-indent:0;text-align:start;text-decoration:none;text-decoration-line:none;text-decoration-style:solid;text-decoration-color:#000000;letter-spacing:normal;word-spacing:normal;text-transform:none;writing-mode:lr-tb;direction:ltr;text-orientation:mixed;dominant-baseline:auto;baseline-shift:baseline;text-anchor:start;white-space:normal;shape-padding:0;clip-rule:nonzero;display:inline;overflow:visible;visibility:visible;opacity:1;isolation:auto;mix-blend-mode:normal;color-interpolation:sRGB;color-interpolation-filters:linearRGB;solid-color:#000000;solid-opacity:1;vector-effect:none;fill:#ffffff;fill-opacity:1;fill-rule:nonzero;stroke:none;stroke-width:0.13229166;stroke-linecap:round;stroke-linejoin:round;stroke-miterlimit:4;stroke-dasharray:none;stroke-dashoffset:0;stroke-opacity:1;color-rendering:auto;image-rendering:auto;shape-rendering:auto;text-rendering:auto;enable-background:accumulate"
         d="m 275.67859,8.280366 c -0.009,0 -0.0218,9.9e-4 -0.0393,0.002 -0.0103,9.9e-4 -0.0193,0.003 -0.0253,0.004 l 0.002,-0.002 c -0.009,0.002 -0.0198,0.006 -0.0331,0.01 -0.0144,0.005 -0.0255,0.008 -0.0315,0.0104 -6.8e-4,2.9e-4 -0.0103,0.005 -0.0253,0.0134 -0.0155,0.009 -0.026,0.0146 -0.031,0.0176 -0.0171,0.0114 -0.0344,0.0247 -0.0491,0.0393 l -3.64421,3.566191 a 0.06615245,0.06615245 0 0 1 -0.045,0.0196 h -0.002 -25.27752 a 0.06615245,0.06615245 0 0 1 -0.002,0 c -0.12083,-0.004 -0.2032,0.036 -0.25942,0.0977 -0.0561,0.0617 -0.0863,0.1473 -0.0863,0.23461 0,0.0873 0.0301,0.17446 0.0863,0.23617 0.0562,0.0617 0.13859,0.10165 0.25942,0.0977 a 0.06615245,0.06615245 0 0 1 0.002,0 h 25.27752 0.002 a 0.06615245,0.06615245 0 0 1 0.045,0.0196 l 3.64421,3.56618 c 0.0489,0.0476 0.10793,0.0761 0.17003,0.0879 a 0.06615245,0.06615245 0 0 1 0.002,0 c 0.0197,0.004 0.0388,0.006 0.0605,0.006 0.0218,0 0.0428,-0.002 0.0625,-0.006 a 0.06615245,0.06615245 0 0 1 0.002,0 c 0.0619,-0.0119 0.11914,-0.0403 0.16793,-0.0879 l 3.64424,-3.56618 a 0.06615245,0.06615245 0 0 1 0.047,-0.0196 h 25.27959 a 0.06615245,0.06615245 0 0 1 0.002,0 c 0.12086,0.004 0.20116,-0.036 0.25736,-0.0977 0.0561,-0.0617 0.0863,-0.14889 0.0863,-0.23617 0,-0.0873 -0.0301,-0.17291 -0.0863,-0.23461 -0.0562,-0.0617 -0.1365,-0.10168 -0.25736,-0.0977 a 0.06615245,0.06615245 0 0 1 -0.002,0 h -25.27959 a 0.06615245,0.06615245 0 0 1 -0.047,-0.0196 l -3.64424,-3.566191 c -0.009,-0.009 -0.0204,-0.0186 -0.0351,-0.0294 a 0.06615245,0.06615245 0 0 1 -0.002,-0.002 c -0.009,-0.008 -0.0149,-0.0118 -0.0119,-0.01 -0.005,-0.003 -0.013,-0.006 -0.0269,-0.0134 a 0.06615245,0.06615245 0 0 1 -0.002,-0.002 c -0.0126,-0.007 -0.0214,-0.0119 -0.0274,-0.0139 -0.005,-0.002 -0.0151,-0.006 -0.0294,-0.01 a 0.06615245,0.06615245 0 0 1 -0.002,0 c -0.0128,-0.004 -0.022,-0.008 -0.031,-0.01 l 0.002,0.002 c -0.007,-9.3e-4 -0.016,-0.003 -0.0274,-0.004 a 0.06615245,0.06615245 0 0 1 -0.004,0 c -0.0116,-0.002 -0.0234,-0.002 -0.0351,-0.002 z m -5.1e-4,0.82578 a 0.06615245,0.06615245 0 0 1 0.0475,0.0196 l 3.18948,3.119171 a 0.06615245,0.06615245 0 0 1 0,0.0956 l -3.18948,3.11917 a 0.06615245,0.06615245 0 0 1 -0.094,0 l -3.18741,-3.11918 a 0.06615245,0.06615245 0 0 1 0,-0.0956 l 3.18741,-3.119171 a 0.06615245,0.06615245 0 0 1 0.0449,-0.0191 0.06615245,0.06615245 0 0 1 0.002,-5e-4 z"
         id="path5330"
         inkscape:connector-curvature="0" />
    </g>
  </g>
</svg>
