<?xml version="1.0" encoding="UTF-8" standalone="no"?>
<!-- Created with Inkscape (http://www.inkscape.org/) -->

<svg
   xmlns:dc="http://purl.org/dc/elements/1.1/"
   xmlns:cc="http://creativecommons.org/ns#"
   xmlns:rdf="http://www.w3.org/1999/02/22-rdf-syntax-ns#"
   xmlns:svg="http://www.w3.org/2000/svg"
   xmlns="http://www.w3.org/2000/svg"
   xmlns:sodipodi="http://sodipodi.sourceforge.net/DTD/sodipodi-0.dtd"
   xmlns:inkscape="http://www.inkscape.org/namespaces/inkscape"
   width="114.00013"
   height="96.000023"
   viewBox="0 0 30.162534 25.400007"
   version="1.1"
   id="svg829"
   sodipodi:docname="indicator.svg"
   inkscape:version="0.92.2 (5c3e80d, 2017-08-06)">
  <defs
     id="defs823" />
  <sodipodi:namedview
     id="base"
     pagecolor="#ffffff"
     bordercolor="#666666"
     borderopacity="1.0"
     inkscape:pageopacity="0.0"
     inkscape:pageshadow="2"
     inkscape:zoom="5.6568542"
     inkscape:cx="42.73243"
     inkscape:cy="54.928372"
     inkscape:document-units="px"
     inkscape:current-layer="layer1"
     showgrid="false"
     inkscape:snap-others="false"
     inkscape:object-nodes="false"
     showborder="true"
     inkscape:window-width="1680"
     inkscape:window-height="987"
     inkscape:window-x="-8"
     inkscape:window-y="-8"
     inkscape:window-maximized="1"
     inkscape:pagecheckerboard="true"
     borderlayer="true"
     units="px"
     fit-margin-top="1"
     fit-margin-right="1"
     fit-margin-bottom="1"
     fit-margin-left="1" />
  <metadata
     id="metadata826">
    <rdf:RDF>
      <cc:Work
         rdf:about="">
        <dc:format>image/svg+xml</dc:format>
        <dc:type
           rdf:resource="http://purl.org/dc/dcmitype/StillImage" />
        <dc:title></dc:title>
      </cc:Work>
    </rdf:RDF>
  </metadata>
  <g
     inkscape:label="Layer 1"
     inkscape:groupmode="layer"
     id="layer1"
     transform="translate(-8.4666492,-135.075)">
    <path
       style="color:#000000;font-style:normal;font-variant:normal;font-weight:normal;font-stretch:normal;font-size:medium;line-height:normal;font-family:sans-serif;font-variant-ligatures:normal;font-variant-position:normal;font-variant-caps:normal;font-variant-numeric:normal;font-variant-alternates:normal;font-feature-settings:normal;text-indent:0;text-align:start;text-decoration:none;text-decoration-line:none;text-decoration-style:solid;text-decoration-color:#000000;letter-spacing:normal;word-spacing:normal;text-transform:none;writing-mode:lr-tb;direction:ltr;text-orientation:mixed;dominant-baseline:auto;baseline-shift:baseline;text-anchor:start;white-space:normal;shape-padding:0;clip-rule:nonzero;display:inline;overflow:visible;visibility:visible;opacity:1;isolation:auto;mix-blend-mode:normal;color-interpolation:sRGB;color-interpolation-filters:linearRGB;solid-color:#000000;solid-opacity:1;vector-effect:none;fill:#ffffff;fill-opacity:1;fill-rule:nonzero;stroke:none;stroke-width:0.26458332;stroke-linecap:round;stroke-linejoin:round;stroke-miterlimit:4;stroke-dasharray:none;stroke-dashoffset:0;stroke-opacity:1;color-rendering:auto;image-rendering:auto;shape-rendering:auto;text-rendering:auto;enable-background:accumulate"
       d="m 11.906272,135.33958 c -1.31237,0 -2.4420595,0.80142 -2.9249295,1.94045 0,0 0,5.2e-4 0,5.2e-4 -0.16083,0.37955 -0.25011,0.79674 -0.25011,1.23402 v 18.52084 c 0,1.74979 1.4252195,3.17501 3.1750395,3.17501 h 18.52108 c 0.98427,0 1.866,-0.45105 2.44898,-1.15704 0.45342,-0.54912 0.72606,-1.25243 0.72606,-2.01797 v -4.26795 c 0,-0.47229 0.15666,-0.65952 0.28939,-0.77825 0.002,-0.002 0.004,-0.004 0.006,-0.006 l 4.28919,-3.81218 a 0.52922657,0.52921958 0 0 0 0.0305,-0.03 0.52922657,0.52921958 0 0 0 0.003,-0.003 0.52922657,0.52921958 0 0 0 5.29e-4,-5.3e-4 0.52922657,0.52921958 0 0 0 0.0636,-0.0827 0.52922657,0.52921958 0 0 0 5.29e-4,-5.3e-4 0.52922657,0.52921958 0 0 0 0.02529,-0.0465 0.52922657,0.52921958 0 0 0 0.0181,-0.0413 0.52922657,0.52921958 0 0 0 0.003,-0.007 0.52922657,0.52921958 0 0 0 5.3e-4,-0.001 0.52922657,0.52921958 0 0 0 0.008,-0.0253 0.52922657,0.52921958 0 0 0 0.009,-0.0295 0.52922657,0.52921958 0 0 0 0.009,-0.0465 0.52922657,0.52921958 0 0 0 0.006,-0.0527 0.52922657,0.52921958 0 0 0 5.29e-4,-0.0289 0.52922657,0.52921958 0 0 0 -5.29e-4,-0.0289 0.52922657,0.52921958 0 0 0 0,-5.3e-4 0.52922657,0.52921958 0 0 0 -5.29e-4,-0.004 0.52922657,0.52921958 0 0 0 -0.005,-0.0486 0.52922657,0.52921958 0 0 0 -0.009,-0.0465 0.52922657,0.52921958 0 0 0 -0.01,-0.0331 0.52922657,0.52921958 0 0 0 -0.007,-0.0217 0.52922657,0.52921958 0 0 0 -5.29e-4,-0.001 0.52922657,0.52921958 0 0 0 -0.003,-0.007 0.52922657,0.52921958 0 0 0 -0.0181,-0.0413 0.52922657,0.52921958 0 0 0 -0.02529,-0.0465 0.52922657,0.52921958 0 0 0 -5.29e-4,-5.3e-4 0.52922657,0.52921958 0 0 0 -0.0636,-0.0827 0.52922657,0.52921958 0 0 0 -5.29e-4,-5.2e-4 0.52922657,0.52921958 0 0 0 -0.003,-0.003 0.52922657,0.52921958 0 0 0 -0.0305,-0.03 l -4.295382,-3.81781 c -0.13278,-0.11872 -0.28939,-0.30618 -0.28939,-0.77877 v -4.26796 c 0,-0.10936 -0.006,-0.21745 -0.0165,-0.32401 -0.0326,-0.3195 -0.11296,-0.62538 -0.23358,-0.91002 0,0 0,-5.1e-4 0,-5.1e-4 -0.48286,-1.13904 -1.61256,-1.94046 -2.92492,-1.94046 z m 0,1.05834 h 18.52108 c 1.1818,0 2.11669,0.93486 2.11669,2.11665 v 4.93149 a 0.52922657,0.52921958 0 0 0 0.0532,0.33434 0.52922657,0.52921958 0 0 0 0.004,0.007 0.52922657,0.52921958 0 0 0 0.0145,0.0258 0.52922657,0.52921958 0 0 0 0.0134,0.0227 0.52922657,0.52921958 0 0 0 0.0124,0.0176 0.52922657,0.52921958 0 0 0 0.0176,0.0238 0.52922657,0.52921958 0 0 0 0.0202,0.0238 0.52922657,0.52921958 0 0 0 0.0134,0.015 0.52922657,0.52921958 0 0 0 0.0253,0.0243 0.52922657,0.52921958 0 0 0 0.0124,0.0114 0.52922657,0.52921958 0 0 0 0.0233,0.0181 0.52922657,0.52921958 0 0 0 0.0243,0.0176 0.52922657,0.52921958 0 0 0 0.003,0.002 0.52922657,0.52921958 0 0 0 5.29e-4,5.2e-4 l 0.002,0.001 4.256122,3.78375 -4.257672,3.78478 -5.29e-4,5.3e-4 a 0.52922657,0.52921958 0 0 0 -10e-4,0.001 0.52922657,0.52921958 0 0 0 -0.0269,0.0191 0.52922657,0.52921958 0 0 0 -0.0227,0.0176 0.52922657,0.52921958 0 0 0 -0.0124,0.0114 0.52922657,0.52921958 0 0 0 -0.0253,0.0243 0.52922657,0.52921958 0 0 0 -0.0134,0.015 0.52922657,0.52921958 0 0 0 -0.0202,0.0238 0.52922657,0.52921958 0 0 0 -0.0176,0.0238 0.52922657,0.52921958 0 0 0 -0.0124,0.0176 0.52922657,0.52921958 0 0 0 -0.0134,0.0227 0.52922657,0.52921958 0 0 0 -0.0145,0.0258 0.52922657,0.52921958 0 0 0 -0.004,0.007 0.52922657,0.52921958 0 0 0 -0.0532,0.33435 v 4.93148 c 0,1.18178 -0.93489,2.11666 -2.11669,2.11666 H 11.906733 c -1.181801,1e-5 -2.1167005,-0.93487 -2.1167005,-2.11665 v -18.52088 c 0,-0.0739 0.004,-0.14682 0.0109,-0.21859 0.10704,-1.07647 0.9979095,-1.89807 2.1058505,-1.89807 z"
       id="path1123"
       inkscape:connector-curvature="0" />
  </g>
</svg>
