<?xml version="1.0" encoding="UTF-8" standalone="no"?>
<!-- Created with Inkscape (http://www.inkscape.org/) -->

<svg
   xmlns:dc="http://purl.org/dc/elements/1.1/"
   xmlns:cc="http://creativecommons.org/ns#"
   xmlns:rdf="http://www.w3.org/1999/02/22-rdf-syntax-ns#"
   xmlns:svg="http://www.w3.org/2000/svg"
   xmlns="http://www.w3.org/2000/svg"
   xmlns:xlink="http://www.w3.org/1999/xlink"
   xmlns:sodipodi="http://sodipodi.sourceforge.net/DTD/sodipodi-0.dtd"
   xmlns:inkscape="http://www.inkscape.org/namespaces/inkscape"
   width="315"
   height="129.99998"
   viewBox="0 0 83.34375 34.395828"
   version="1.1"
   id="svg829"
   sodipodi:docname="logo-mrozik.svg"
   inkscape:version="0.92.2 (5c3e80d, 2017-08-06)">
  <defs
     id="defs823">
    <radialGradient
       inkscape:collect="always"
       xlink:href="#linearGradient1494"
       id="radialGradient1496"
       cx="4024.8367"
       cy="1753.828"
       fx="4024.8367"
       fy="1753.828"
       r="157.5"
       gradientTransform="matrix(0.27805036,1.0953941e-8,0,0.11547773,-1098.3589,-63.748866)"
       gradientUnits="userSpaceOnUse" />
    <linearGradient
       inkscape:collect="always"
       id="linearGradient1494">
      <stop
         style="stop-color:#5c5c6c;stop-opacity:1"
         offset="0"
         id="stop1490" />
      <stop
         style="stop-color:#36363e;stop-opacity:1"
         offset="1"
         id="stop1492" />
    </linearGradient>
  </defs>
  <sodipodi:namedview
     id="base"
     pagecolor="#ffffff"
     bordercolor="#666666"
     borderopacity="1.0"
     inkscape:pageopacity="0.0"
     inkscape:pageshadow="2"
     inkscape:zoom="2.8284271"
     inkscape:cx="122.49815"
     inkscape:cy="55.077723"
     inkscape:document-units="px"
     inkscape:current-layer="layer1"
     showgrid="false"
     inkscape:snap-others="false"
     inkscape:object-nodes="false"
     showborder="true"
     inkscape:window-width="656"
     inkscape:window-height="463"
     inkscape:window-x="78"
     inkscape:window-y="78"
     inkscape:window-maximized="0"
     fit-margin-top="0"
     fit-margin-left="0"
     fit-margin-right="0"
     fit-margin-bottom="0"
     units="px" />
  <metadata
     id="metadata826">
    <rdf:RDF>
      <cc:Work
         rdf:about="">
        <dc:format>image/svg+xml</dc:format>
        <dc:type
           rdf:resource="http://purl.org/dc/dcmitype/StillImage" />
        <dc:title />
      </cc:Work>
    </rdf:RDF>
  </metadata>
  <g
     inkscape:label="Layer 1"
     inkscape:groupmode="layer"
     id="layer1"
     transform="translate(18.653109,-120.52292)">
    <path
       style="opacity:1;fill:url(#radialGradient1496);fill-opacity:1;stroke:none;stroke-width:0.64029169;stroke-linecap:round;stroke-linejoin:round;stroke-miterlimit:4;stroke-dasharray:none;stroke-dashoffset:0;stroke-opacity:1;paint-order:normal"
       d="m -18.653109,120.52292 v 12.50569 8.99427 9.76945 c 0,1.73209 1.394831,3.12642 3.126925,3.12642 h 77.090402 c 1.732095,0 3.126422,-1.39433 3.126422,-3.12642 v -9.76945 -8.99427 -12.50569 z"
       id="rect1483"
       inkscape:connector-curvature="0" />
    <path
       style="font-style:italic;font-variant:normal;font-weight:normal;font-stretch:semi-expanded;font-size:54.04482651px;line-height:1.25;font-family:'Harlow Solid Italic';-inkscape-font-specification:'Harlow Solid Italic, Italic Semi-Expanded';font-variant-ligatures:normal;font-variant-caps:normal;font-variant-numeric:normal;font-feature-settings:normal;text-align:start;letter-spacing:0px;word-spacing:0px;writing-mode:lr-tb;text-anchor:start;fill:#fdf7e7;fill-opacity:1;stroke:#2a2533;stroke-width:0.5291667;stroke-miterlimit:4;stroke-dasharray:none;stroke-opacity:1"
       d="m 4.1118655,128.98585 c -0.6723,0 -1.207,0.49288 -1.6043,1.47842 l -4.5495,11.19607 c -0.8175,2.00164 -1.57,3.39589 -2.2576,4.18279 -0.6799,0.79456 -1.4821,1.19185 -2.4065,1.19185 -0.7717,0 -1.3792,-0.25204 -1.8223,-0.75626 -0.4431,-0.49659 -0.5574,-1.18701 -0.6644,-2.05134 -0.1818,-1.46729 -0.8613995,-1.71036 -1.8689005,-1.65124 -1.0006,0.0587 -1.348499,1.07797 -1.3514,2.00649 0,1.62728 0.5004,2.9452 1.501301,3.95367 1.0007995,1.01608 2.3032995,1.52396 3.9075995,1.52396 1.5051,0 2.8382,-0.45056 3.9995,-1.35207 0.8022,-0.62647 1.4553,-1.36757 1.9595,-2.22324 0.5043,-0.84802 1.2378,-2.45625 2.2004,-4.82461 l 2.7961,-6.89883 0.3209,1.4212 c 0.1834,0.84802 0.5845,1.27196 1.2033,1.27196 0.4737,0 0.9742,-0.28652 1.5013,-0.8595 l 2.2116,-2.37224 -4.209,10.86282 c -0.3209,0.76398 -0.4812,1.34461 -0.4812,1.74188 0,0.61882 0.2138,1.09626 0.6416,1.43242 0.4355,0.3285 1.0912,0.49279 1.8857,0.49279 H 25.400665 c 0.6722,0 1.1917,-0.14504 1.5585,-0.43534 0.3743,-0.29032 0.5617,-0.69523 0.5617,-1.21474 0,-0.72579 -0.531,-1.08884 -1.5929,-1.08884 H 7.8736655 l 5.3488005,-14.12868 0.2635,-0.64181 c 0.1222,-0.29795 0.183299,-0.57304 0.183299,-0.82517 0,-0.39727 -0.1605,-0.73324 -0.481299,-1.00827 -0.3133,-0.28268 -0.6989,-0.42414 -1.1573,-0.42414 -0.6571,0 -1.3637,0.37067 -2.1200005,1.11173 l -3.438,3.38053 -0.699,-2.63571 c -0.1834,-0.68758 -0.4012,-1.16905 -0.6533,-1.44408 -0.2445,-0.27503 -0.5807,-0.41247 -1.0085,-0.41247 z"
       id="path1448"
       inkscape:connector-curvature="0"
       sodipodi:nodetypes="scccscssccscccccscccscsscsscccscsccccs" />
    <path
       sodipodi:nodetypes="czzzzcccc"
       inkscape:connector-curvature="0"
       id="path1450"
       d="m -10.784334,138.55935 c 0.551299,-0.83907 1.1226995,-1.68729 2.0720995,-2.4233 0.9495,-0.736 2.1693,-1.41541 3.4425,-1.33942 1.2731,0.076 2.3845,0.96947 0.7966,1.80498 -1.588,0.83553 -2.8426,2.22141 -3.4671,3.05273 -0.6245,0.83133 -0.7679,1.25336 -1.4508,1.53158 -0.6847995,0.25267 -1.5774995,-0.13469 -1.7305995,-0.88122 -0.1647,-0.59622 0.024,-1.23144 0.3373,-1.74535 -0.1369,0.26428 -0.1041,0.18929 0,0 z"
       style="font-style:italic;font-variant:normal;font-weight:normal;font-stretch:semi-expanded;font-size:54.04482651px;line-height:1.25;font-family:'Harlow Solid Italic';-inkscape-font-specification:'Harlow Solid Italic, Italic Semi-Expanded';font-variant-ligatures:normal;font-variant-caps:normal;font-variant-numeric:normal;font-feature-settings:normal;text-align:start;letter-spacing:0px;word-spacing:0px;writing-mode:lr-tb;text-anchor:start;fill:#fdf7e7;fill-opacity:1;stroke:#2a2533;stroke-width:0.5291667;stroke-miterlimit:4;stroke-dasharray:none;stroke-opacity:1" />
    <path
       inkscape:connector-curvature="0"
       id="path1452"
       style="font-style:italic;font-variant:normal;font-weight:normal;font-stretch:semi-expanded;font-size:54.04482651px;line-height:1.25;font-family:'Harlow Solid Italic';-inkscape-font-specification:'Harlow Solid Italic, Italic Semi-Expanded';font-variant-ligatures:normal;font-variant-caps:normal;font-variant-numeric:normal;font-feature-settings:normal;text-align:start;letter-spacing:0px;word-spacing:0px;writing-mode:lr-tb;text-anchor:start;fill:#fdf7e7;fill-opacity:1;stroke:#2a2533;stroke-width:0.5291667;stroke-miterlimit:4;stroke-dasharray:none;stroke-opacity:1"
       d="m 16.021866,138.53185 -0.3897,0.96262 q -0.5271,1.28349 -1.3752,1.28349 -0.5156,0 -0.8594,-0.30941 -0.3438,-0.30941 -0.3438,-0.76781 0,-0.26357 0.2521,-0.89386 l 1.2949,-3.19727 q 0.4699,-1.15744 1.3294,-1.15744 0.848,0 1.0428,0.80219 l 0.092,0.35525 q 0.069,0.27504 0.2063,0.34379 0.1375,0.0688 0.676101,0.0688 h 2.681599 q 1.501201,0 1.501201,1.05429 0,1.45539 -1.9023,1.45539 l -0.126101,0.1146 q -1.822099,1.74188 -1.822099,2.69304 0,0.95116 1.0543,0.95116 h 1.444 q 1.4553,0 1.4553,1.00846 0,0.7105 -0.5156,1.10013 -0.5043,0.38964 -1.421,0.38964 h -2.2462 q -1.1459,0 -1.8794,-0.79073 -0.7219,-0.79072 -0.7219,-2.05129 0,-0.80219 0.3896,-1.55853 0.3897,-0.75634 1.3752,-1.85648 z" />
    <path
       inkscape:connector-curvature="0"
       id="path1454"
       style="font-style:italic;font-variant:normal;font-weight:normal;font-stretch:semi-expanded;font-size:54.04482651px;line-height:1.25;font-family:'Harlow Solid Italic';-inkscape-font-specification:'Harlow Solid Italic, Italic Semi-Expanded';font-variant-ligatures:normal;font-variant-caps:normal;font-variant-numeric:normal;font-feature-settings:normal;text-align:start;letter-spacing:0px;word-spacing:0px;writing-mode:lr-tb;text-anchor:start;fill:#fdf7e7;fill-opacity:1;stroke:#2a2533;stroke-width:0.5291667;stroke-miterlimit:4;stroke-dasharray:none;stroke-opacity:1"
       d="m 28.693065,135.86174 q 1.6617,0 2.7274,1.05429 1.0772,1.05429 1.0772,2.68158 0,1.2262 -0.5615,2.44093 -0.5615,1.20327 -1.4554,1.92524 -0.5959,0.46985 -1.2376,0.65321 -0.6303,0.17189 -1.7763,0.17189 -1.868,0 -2.5212,-0.44693 -1.5356,-1.05431 -1.5356,-3.11706 0,-2.17735 1.57,-3.77026 1.57,-1.59289 3.713,-1.59289 z m -0.275099,2.44091 q -0.848,0 -1.547,0.83657 -0.699001,0.83655 -0.699001,1.84503 0,1.32933 1.4897,1.32933 0.8709,0 1.3408,-0.53863 0.7793,-0.88239 0.7793,-2.0169 0,-0.65321 -0.3782,-1.05431 -0.3782,-0.40109 -0.985599,-0.40109 z" />
    <path
       style="opacity:1;fill:#5ec2e7;fill-opacity:1;stroke:#2a2533;stroke-width:0.18520834;stroke-linecap:round;stroke-linejoin:round;stroke-miterlimit:4;stroke-dasharray:none;stroke-dashoffset:0;stroke-opacity:1"
       d="m 49.067166,122.90866 c -0.023,0 -0.044,0.006 -0.062,0.0151 -0.091,0.0303 -0.1517,0.11328 -0.1517,0.21181 v 1.25525 l -0.8349,-0.83504 c -0.028,-0.0275 -0.064,-0.0415 -0.1011,-0.0415 0,0 -0.018,3.9e-4 -0.018,9.4e-4 0,-4e-4 -0.018,-4e-4 -0.018,-4e-4 -0.056,0 -0.1162,0.0219 -0.1587,0.0658 -0.089,0.0877 -0.089,0.22923 0,0.31704 l 1.128,1.12806 v 1.98758 l -2.8792,-2.82773 1.0089,3.9075 -1.7211,-0.99382 -0.413,-1.54096 c -0.033,-0.11999 -0.1552,-0.19062 -0.2744,-0.15851 -0.059,0.0168 -0.1069,0.0548 -0.1365,0.10427 0,0.006 0,0.009 0,0.0168 0,0.006 0,0.008 -0.018,0.0137 -0.018,0.0312 -0.025,0.0695 -0.018,0.10715 l 0.3057,1.1406 -1.0872,-0.62758 c -0.083,-0.0493 -0.1885,-0.0363 -0.2587,0.0249 -0.018,0.0123 -0.033,0.0271 -0.045,0.047 l -0.018,0.0172 c -0.018,0.0197 -0.018,0.041 -0.018,0.0621 -0.018,0.0913 0.023,0.18758 0.107,0.23691 l 1.0869,0.62766 -1.1404,0.30558 c -0.037,0.009 -0.066,0.0347 -0.085,0.0658 0,0.006 0,0.009 0,0.0151 0,0.006 0,0.009 -0.018,0.0151 -0.026,0.0498 -0.036,0.1103 -0.022,0.17018 0.033,0.11997 0.1551,0.1907 0.2744,0.15849 l 1.5411,-0.41292 1.7211,0.99373 -3.8885,1.07983 3.8885,1.07984 -1.7211,0.99372 -1.5411,-0.41293 c -0.1212,-0.032 -0.2422,0.0388 -0.2744,0.15851 -0.018,0.0599 0,0.12054 0.022,0.17017 0,0.006 0,0.009 0.018,0.0152 0,0.006 0,0.009 0,0.0151 0.019,0.0313 0.048,0.0556 0.085,0.0657 l 1.1404,0.30564 -1.0869,0.62767 c -0.083,0.0493 -0.1262,0.14554 -0.107,0.23689 0,0.0211 0,0.0425 0.018,0.0623 l 0.018,0.0172 c 0.018,0.0197 0.026,0.0354 0.045,0.047 0.07,0.0612 0.1734,0.0743 0.2587,0.0249 l 1.0872,-0.62755 -0.3057,1.1406 c -0.018,0.0379 0,0.076 0.018,0.10715 0,0.006 0,0.008 0.018,0.0137 0,0.006 0,0.0124 0,0.0168 0.029,0.0498 0.076,0.0882 0.1365,0.10429 0.1212,0.0321 0.2423,-0.0384 0.2744,-0.1585 l 0.413,-1.54096 1.7211,-0.99381 -1.0089,3.90748 2.8792,-2.82771 v 1.98758 l -1.128,1.12805 c -0.089,0.0879 -0.089,0.22925 0,0.31705 0.044,0.044 0.101199,0.0658 0.1587,0.0658 0,0 0.018,-3.8e-4 0.018,-3.8e-4 0,3.8e-4 0.018,9.4e-4 0.018,9.4e-4 0.036,0 0.072,-0.0136 0.1011,-0.0416 l 0.8349,-0.83505 v 1.25528 c 0,0.0986 0.062,0.18164 0.1517,0.21181 0.018,0.01 0.039,0.0152 0.062,0.0152 h 0.02 c 0.023,0 0.044,-0.006 0.062,-0.0152 0.091,-0.0303 0.1517,-0.11329 0.1517,-0.21181 v -1.25528 l 0.8355,0.83505 c 0.026,0.0278 0.064,0.0416 0.099,0.0416 0,0 0.018,-4e-4 0.018,-9.4e-4 0,3.8e-4 0.018,3.8e-4 0.018,3.8e-4 0.056,0 0.1161,-0.0219 0.1587,-0.0658 0.091,-0.0877 0.091,-0.22922 0,-0.31705 l -1.1281,-1.12816 v -1.98761 l 2.8795,2.82771 -1.0092,-3.90749 0.4531,0.26167 1.268299,0.73214 0.4125,1.54098 c 0.032,0.11997 0.1552,0.19061 0.274701,0.15849 0.059,-0.0168 0.107,-0.0548 0.1366,-0.10429 0,-0.006 0,-0.009 0,-0.0168 0,-0.006 0,-0.008 0.018,-0.0137 0.018,-0.0313 0.023,-0.0695 0.018,-0.10715 l -0.3055,-1.14061 1.086799,0.62759 c 0.083,0.0493 0.1888,0.0363 0.2592,-0.025 0.018,-0.0123 0.035,-0.0273 0.045,-0.047 l 0.018,-0.0172 c 0.018,-0.0195 0.018,-0.0407 0.018,-0.0617 0.018,-0.0916 -0.023,-0.18792 -0.107,-0.23729 l -1.087201,-0.62766 1.1406,-0.30567 c 0.036,-0.009 0.066,-0.0342 0.085,-0.0657 0,-0.006 0,-0.009 0,-0.0151 0,-0.006 0,-0.01 0.018,-0.0151 0.028,-0.0497 0.037,-0.11015 0.023,-0.17016 -0.033,-0.11998 -0.1551,-0.1907 -0.2744,-0.15851 l -1.5409,0.41291 -1.7213,-0.99379 3.8885,-1.07976 -3.8885,-1.07976 1.7213,-0.99379 1.5409,0.41293 c 0.1212,0.032 0.2424,-0.0388 0.2744,-0.15851 0.018,-0.0599 0,-0.12054 -0.023,-0.17019 0,-0.006 0,-0.009 -0.018,-0.0151 0,-0.006 0,-0.01 0,-0.0151 -0.018,-0.0313 -0.046,-0.0557 -0.083,-0.0658 l -1.140901,-0.30557 1.087401,-0.62768 c 0.083,-0.0493 0.1261,-0.14555 0.1069,-0.23689 0,-0.0212 0,-0.0425 -0.018,-0.0621 l -0.018,-0.0172 c -0.018,-0.0198 -0.026,-0.0353 -0.045,-0.047 -0.07,-0.0612 -0.1736,-0.0743 -0.2591,-0.0248 l -1.087,0.6276 0.3057,-1.14061 c 0.018,-0.0378 0,-0.076 -0.018,-0.10715 0,-0.006 0,-0.008 -0.018,-0.0137 0,-0.006 0,-0.0123 0,-0.0168 -0.028,-0.0498 -0.077,-0.0883 -0.1365,-0.10428 -0.1212,-0.0321 -0.2425,0.0384 -0.2747,0.15851 l -0.4129,1.54095 -1.268,0.73214 -0.4533,0.26165 1.009099,-3.90749 -2.879399,2.82774 v -1.98767 l 1.1283,-1.12806 c 0.091,-0.0877 0.091,-0.22923 0,-0.31704 -0.043,-0.0439 -0.1011,-0.0658 -0.1586,-0.0658 0,0 -0.018,3.9e-4 -0.018,3.9e-4 0,-3.9e-4 -0.019,-9.4e-4 -0.019,-9.4e-4 -0.036,0 -0.072,0.0137 -0.1011,0.0413 l -0.8351,0.83505 v -1.25523 c 0,-0.0985 -0.062,-0.18167 -0.1518,-0.21184 -0.018,-0.009 -0.039,-0.0151 -0.061,-0.0151 z m -1.2832,4.41322 1.069,1.04976 v 0.80168 l -0.6945,-0.4008 z m 2.586199,0 -0.3744,1.45057 -0.6944,0.40087 v -0.80168 z m -2.4356,1.83882 0.6941,0.40087 -0.6941,0.4009 -1.443599,-0.4009 z m 2.285201,0 1.4435,0.40087 -1.4435,0.4009 -0.6943,-0.4009 0.1952,-0.11261 z m -1.3668,0.78913 v 0.80169 l -1.069,1.04976 0.374499,-1.45064 z m 0.448099,0 0.694401,0.40087 0.374699,1.45058 -1.0691,-1.04976 z"
       id="path1456"
       inkscape:connector-curvature="0" />
    <path
       id="path1458"
       d="m 55.440065,129.14629 c -0.7717,0 -1.333,0.42796 -1.6845,1.28362 l -0.1261,0.30927 -4.7983,11.58872 -3.3635,-0.0109 1.6297,-4.08307 c 0.2063,-0.50423 0.3096,-0.87867 0.3096,-1.12314 0,-0.29796 -0.118499,-0.55392 -0.3553,-0.76783 -0.2292,-0.21391 -0.504199,-0.32072 -0.8251,-0.32072 -0.779299,0 -1.3447,0.43151 -1.696199,1.29481 l -0.1261,0.32097 -1.890701,4.65279 c 0,0.006 0,0.0108 -0.01,0.0165 l -5.127601,-0.0165 3.632601,-3.50676 c 0.4813,-0.47367 0.7221,-0.94349 0.7221,-1.40952 0,-0.9015 -0.531,-1.35229 -1.5929,-1.35229 h -3.564 -0.286701 c -0.4736,0 -0.8747,0.14891 -1.2032,0.44687 -0.3285,0.29031 -0.4926,0.64926 -0.4926,1.0771 0,0.68758 0.4162,1.03158 1.249,1.03158 h 0.2866 l 1.2719,-0.0458 -3.7473,3.60976 c -0.5119,0.4966 -0.7678,0.93977 -0.7678,1.3294 0,0.40492 0.1374,0.72557 0.4125,0.96239 0.2826,0.23684 0.6609,0.35384 1.1346,0.35532 l 14.8304,0.0404 c 0.6112,0.002 1.0849,-0.1299 1.421,-0.38965 0.1019,-0.0769 0.1867,-0.16408 0.2584,-0.25917 0.1694,-0.1866 0.3197,-0.4329 0.4507,-0.75536 l 1.2833,-3.17434 2.6588,3.97651 0.1374,0.20626 c 0.2368,0.34379 0.5159,0.51579 0.8367,0.51579 0.3667,0 0.6953,-0.14131 0.9856,-0.42398 0.2979,-0.28268 0.4468,-0.59976 0.4468,-0.9512 0,-0.22155 -0.1108,-0.50416 -0.3324,-0.84795 l -1.7762,-2.7847 1.7076,-1.24929 0.2635,-0.19482 c 0.5653,-0.42019 0.8482,-0.8862 0.8482,-1.39807 0,-0.30559 -0.1071,-0.56156 -0.321,-0.76783 -0.2139,-0.20629 -0.4813,-0.30927 -0.8022,-0.30927 -0.382,0 -0.8404,0.19863 -1.3752,0.5959 l -2.5784,1.91386 2.9223,-7.19688 0.1259,-0.30927 c 0.1222,-0.29795 0.1834,-0.56151 0.1834,-0.79072 0,-0.29796 -0.1147,-0.55393 -0.3439,-0.76783 -0.2292,-0.21393 -0.5042,-0.32097 -0.8251,-0.32097 z"
       style="font-style:italic;font-variant:normal;font-weight:normal;font-stretch:semi-expanded;font-size:54.04482651px;line-height:1.25;font-family:'Harlow Solid Italic';-inkscape-font-specification:'Harlow Solid Italic, Italic Semi-Expanded';font-variant-ligatures:normal;font-variant-caps:normal;font-variant-numeric:normal;font-feature-settings:normal;text-align:start;letter-spacing:0px;word-spacing:0px;writing-mode:lr-tb;text-anchor:start;fill:#fdf7e7;fill-opacity:1;stroke:#2a2533;stroke-width:0.5291667;stroke-miterlimit:4;stroke-dasharray:none;stroke-opacity:1"
       inkscape:connector-curvature="0" />
    <rect
       style="opacity:1;fill:#fdf7e7;fill-opacity:1;stroke:#2a2533;stroke-width:0.5291667;stroke-linecap:butt;stroke-linejoin:round;stroke-miterlimit:4;stroke-dasharray:none;stroke-dashoffset:0;stroke-opacity:1"
       id="rect1460"
       width="5.470499"
       height="2.7952952"
       x="30.438637"
       y="145.95003"
       ry="1.4879853"
       rx="1.4879853" />
  </g>
</svg>
