<?xml version="1.0" encoding="UTF-8" standalone="no"?>
<!-- Created with Inkscape (http://www.inkscape.org/) -->

<svg
   xmlns:dc="http://purl.org/dc/elements/1.1/"
   xmlns:cc="http://creativecommons.org/ns#"
   xmlns:rdf="http://www.w3.org/1999/02/22-rdf-syntax-ns#"
   xmlns:svg="http://www.w3.org/2000/svg"
   xmlns="http://www.w3.org/2000/svg"
   xmlns:xlink="http://www.w3.org/1999/xlink"
   xmlns:sodipodi="http://sodipodi.sourceforge.net/DTD/sodipodi-0.dtd"
   xmlns:inkscape="http://www.inkscape.org/namespaces/inkscape"
   width="314.99979"
   height="150"
   viewBox="0 0 83.34369 39.687501"
   version="1.1"
   id="svg829"
   sodipodi:docname="logo-mrozik.svg"
   inkscape:version="0.92.2 (5c3e80d, 2017-08-06)">
  <defs
     id="defs823">
    <radialGradient
       inkscape:collect="always"
       xlink:href="#linearGradient2494"
       id="radialGradient4096"
       gradientUnits="userSpaceOnUse"
       gradientTransform="matrix(0.82974673,-1.3923139e-8,0,0.36767303,577.92205,116.34237)"
       cx="63.222225"
       cy="132.55765"
       fx="63.222225"
       fy="132.55765"
       r="52.916672" />
    <linearGradient
       id="linearGradient2494"
       inkscape:collect="always">
      <stop
         id="stop2490"
         offset="0"
         style="stop-color:#5c5c6c;stop-opacity:1" />
      <stop
         id="stop2492"
         offset="1"
         style="stop-color:#36363e;stop-opacity:1" />
    </linearGradient>
  </defs>
  <sodipodi:namedview
     id="base"
     pagecolor="#ffffff"
     bordercolor="#666666"
     borderopacity="1.0"
     inkscape:pageopacity="0.0"
     inkscape:pageshadow="2"
     inkscape:zoom="2.8284271"
     inkscape:cx="171.38034"
     inkscape:cy="69.191476"
     inkscape:document-units="px"
     inkscape:current-layer="layer1"
     showgrid="false"
     inkscape:snap-others="false"
     inkscape:object-nodes="false"
     showborder="true"
     inkscape:window-width="1680"
     inkscape:window-height="987"
     inkscape:window-x="-8"
     inkscape:window-y="-8"
     inkscape:window-maximized="1"
     fit-margin-top="0"
     fit-margin-left="0"
     fit-margin-right="0"
     fit-margin-bottom="0"
     borderlayer="false"
     units="px"
     inkscape:showpageshadow="false" />
  <metadata
     id="metadata826">
    <rdf:RDF>
      <cc:Work
         rdf:about="">
        <dc:format>image/svg+xml</dc:format>
        <dc:type
           rdf:resource="http://purl.org/dc/dcmitype/StillImage" />
        <dc:title></dc:title>
      </cc:Work>
    </rdf:RDF>
  </metadata>
  <g
     inkscape:label="Layer 1"
     inkscape:groupmode="layer"
     id="layer1"
     transform="translate(7.80518,-103.06042)">
    <g
       id="g1550"
       transform="translate(-598.72809,-42.642003)">
      <path
         id="rect4076"
         d="m 590.92291,145.70242 v 24.94812 h 0.0218 v 8.27786 c 0,3.57968 2.80686,6.46152 6.29339,6.46152 h 70.7138 c 3.48655,0 6.2934,-2.88184 6.2934,-6.46152 v -8.27786 h 0.0213 v -24.94812 z"
         style="opacity:1;fill:url(#radialGradient4096);fill-opacity:1;stroke:none;stroke-width:0.53863716;stroke-linecap:round;stroke-linejoin:round;stroke-miterlimit:4;stroke-dasharray:none;stroke-dashoffset:0;stroke-opacity:1;paint-order:normal"
         inkscape:connector-curvature="0" />
      <g
         transform="translate(0,-2.0360502)"
         id="g1517">
        <path
           sodipodi:nodetypes="scccscssccscccccscccscsscsscccscsccccs"
           inkscape:connector-curvature="0"
           id="path4078"
           d="m 613.68646,158.12532 c -0.67232,0 -1.20705,0.49288 -1.60432,1.47842 l -4.54947,11.19607 c -0.81747,2.00164 -1.56999,3.39589 -2.25758,4.18279 -0.67994,0.79456 -1.48216,1.19185 -2.40657,1.19185 -0.77164,0 -1.37912,-0.25204 -1.82223,-0.75626 -0.4431,-0.49659 -0.55743,-1.18701 -0.66447,-2.05134 -0.18173,-1.46729 -0.86131,-1.71036 -1.86891,-1.65124 -1.00059,0.0587 -1.34841,1.07797 -1.3514,2.00649 0,1.62728 0.50049,2.9452 1.50132,3.95367 1.00082,1.01608 2.30329,1.52396 3.90766,1.52396 1.50505,0 2.83819,-0.45056 3.99945,-1.35207 0.80218,-0.62647 1.45532,-1.36757 1.95956,-2.22324 0.50422,-0.84802 1.23773,-2.45625 2.20034,-4.82461 l 2.79617,-6.89883 0.32089,1.4212 c 0.18336,0.84802 0.58447,1.27196 1.20329,1.27196 0.47367,0 0.97417,-0.28652 1.50132,-0.8595 l 2.21157,-2.37224 -4.20905,10.86282 c -0.32088,0.76398 -0.48113,1.34461 -0.48113,1.74188 0,0.61882 0.21375,1.09626 0.64158,1.43242 0.43547,0.3285 1.09118,0.49279 1.88572,0.49279 h 18.37503 c 0.67227,0 1.19177,-0.14504 1.55851,-0.43534 0.37434,-0.29032 0.56168,-0.69523 0.56168,-1.21474 0,-0.72579 -0.53094,-1.08884 -1.59283,-1.08884 h -18.05433 l 5.34883,-14.12868 0.26345,-0.64181 c 0.12223,-0.29795 0.18334,-0.57304 0.18334,-0.82517 0,-0.39727 -0.16048,-0.73324 -0.48135,-1.00827 -0.31325,-0.28268 -0.69891,-0.42414 -1.1573,-0.42414 -0.65702,0 -1.36366,0.37067 -2.12,1.11173 l -3.43798,3.38053 -0.69903,-2.63571 c -0.18336,-0.68758 -0.40115,-1.16905 -0.65326,-1.44408 -0.24448,-0.27503 -0.58068,-0.41247 -1.0085,-0.41247 z"
           style="font-style:italic;font-variant:normal;font-weight:normal;font-stretch:semi-expanded;font-size:54.04482651px;line-height:1.25;font-family:'Harlow Solid Italic';-inkscape-font-specification:'Harlow Solid Italic, Italic Semi-Expanded';font-variant-ligatures:normal;font-variant-caps:normal;font-variant-numeric:normal;font-feature-settings:normal;text-align:start;letter-spacing:0px;word-spacing:0px;writing-mode:lr-tb;text-anchor:start;fill:#f6aa72;fill-opacity:1;stroke:#2a2533;stroke-width:0.36694169;stroke-miterlimit:4;stroke-dasharray:none;stroke-opacity:1" />
        <path
           style="font-style:italic;font-variant:normal;font-weight:normal;font-stretch:semi-expanded;font-size:54.04482651px;line-height:1.25;font-family:'Harlow Solid Italic';-inkscape-font-specification:'Harlow Solid Italic, Italic Semi-Expanded';font-variant-ligatures:normal;font-variant-caps:normal;font-variant-numeric:normal;font-feature-settings:normal;text-align:start;letter-spacing:0px;word-spacing:0px;writing-mode:lr-tb;text-anchor:start;fill:#faf6f0;fill-opacity:1;stroke:#2a2533;stroke-width:0.36671251;stroke-miterlimit:4;stroke-dasharray:none;stroke-opacity:1"
           d="m 598.79024,167.69882 c 0.55127,-0.83907 1.12267,-1.68729 2.07212,-2.4233 0.94946,-0.736 2.16931,-1.41541 3.44245,-1.33942 1.27313,0.076 2.38453,0.96947 0.7966,1.80498 -1.58793,0.83553 -2.84255,2.22141 -3.46706,3.05273 -0.62452,0.83133 -0.76792,1.25336 -1.45083,1.53158 -0.68477,0.25267 -1.57748,-0.13469 -1.73056,-0.88122 -0.1647,-0.59622 0.024,-1.23144 0.33728,-1.74535 -0.13691,0.26428 -0.10407,0.18929 0,0 z"
           id="path4080"
           inkscape:connector-curvature="0"
           sodipodi:nodetypes="czzzzcccc" />
        <path
           d="m 625.59641,167.67132 -0.38964,0.96262 q -0.52713,1.28349 -1.37516,1.28349 -0.51569,0 -0.85949,-0.30941 -0.34378,-0.30941 -0.34378,-0.76781 0,-0.26357 0.25211,-0.89386 l 1.29495,-3.19727 q 0.46985,-1.15744 1.32934,-1.15744 0.848,0 1.04283,0.80219 l 0.0917,0.35525 q 0.0688,0.27504 0.20625,0.34379 0.13754,0.0688 0.67615,0.0688 h 2.68157 q 1.50124,0 1.50124,1.05429 0,1.45539 -1.90233,1.45539 l -0.12607,0.1146 q -1.82208,1.74188 -1.82208,2.69304 0,0.95116 1.05431,0.95116 h 1.44392 q 1.45538,0 1.45538,1.00846 0,0.7105 -0.51568,1.10013 -0.50423,0.38964 -1.42099,0.38964 h -2.24614 q -1.14596,0 -1.87939,-0.79073 -0.72196,-0.79072 -0.72196,-2.05129 0,-0.80219 0.38962,-1.55853 0.38964,-0.75634 1.37518,-1.85648 z"
           style="font-style:italic;font-variant:normal;font-weight:normal;font-stretch:semi-expanded;font-size:54.04482651px;line-height:1.25;font-family:'Harlow Solid Italic';-inkscape-font-specification:'Harlow Solid Italic, Italic Semi-Expanded';font-variant-ligatures:normal;font-variant-caps:normal;font-variant-numeric:normal;font-feature-settings:normal;text-align:start;letter-spacing:0px;word-spacing:0px;writing-mode:lr-tb;text-anchor:start;fill:#faf6f0;fill-opacity:1;stroke:#2a2533;stroke-width:0.36671251;stroke-miterlimit:4;stroke-dasharray:none;stroke-opacity:1"
           id="path4082"
           inkscape:connector-curvature="0" />
        <path
           d="m 638.26767,165.00121 q 1.66165,0 2.72742,1.05429 1.07718,1.05429 1.07718,2.68158 0,1.2262 -0.5615,2.44093 -0.56155,1.20327 -1.45538,1.92524 -0.59594,0.46985 -1.23765,0.65321 -0.63029,0.17189 -1.7763,0.17189 -1.86793,0 -2.52115,-0.44693 -1.53559,-1.05431 -1.53559,-3.11706 0,-2.17735 1.56999,-3.77026 1.56998,-1.59289 3.71298,-1.59289 z m -0.27507,2.44091 q -0.84802,0 -1.54705,0.83657 -0.69903,0.83655 -0.69903,1.84503 0,1.32933 1.48977,1.32933 0.87091,0 1.34079,-0.53863 0.77924,-0.88239 0.77924,-2.0169 0,-0.65321 -0.37816,-1.05431 -0.37816,-0.40109 -0.98556,-0.40109 z"
           style="font-style:italic;font-variant:normal;font-weight:normal;font-stretch:semi-expanded;font-size:54.04482651px;line-height:1.25;font-family:'Harlow Solid Italic';-inkscape-font-specification:'Harlow Solid Italic, Italic Semi-Expanded';font-variant-ligatures:normal;font-variant-caps:normal;font-variant-numeric:normal;font-feature-settings:normal;text-align:start;letter-spacing:0px;word-spacing:0px;writing-mode:lr-tb;text-anchor:start;fill:#faf6f0;fill-opacity:1;stroke:#2a2533;stroke-width:0.36671251;stroke-miterlimit:4;stroke-dasharray:none;stroke-opacity:1"
           id="path4084"
           inkscape:connector-curvature="0" />
        <path
           inkscape:connector-curvature="0"
           id="path4086"
           d="m 658.64181,152.04813 c -0.0225,0 -0.0445,0.006 -0.0623,0.0151 -0.0906,0.0303 -0.15178,0.11328 -0.15178,0.21181 v 1.25525 l -0.83482,-0.83504 c -0.0283,-0.0275 -0.0636,-0.0415 -0.10114,-0.0415 0,0 -0.0182,3.9e-4 -0.0182,9.4e-4 0,-4e-4 -0.0182,-4e-4 -0.0182,-4e-4 -0.0558,0 -0.11616,0.0219 -0.15868,0.0658 -0.0888,0.0877 -0.0888,0.22923 0,0.31704 l 1.12799,1.12806 v 1.98758 l -2.87919,-2.82773 1.00892,3.9075 -1.72115,-0.99382 -0.41298,-1.54096 c -0.0325,-0.11999 -0.15517,-0.19062 -0.27442,-0.15851 -0.0587,0.0168 -0.10687,0.0548 -0.13648,0.10427 0,0.006 0,0.009 0,0.0168 0,0.006 0,0.008 -0.0182,0.0137 -0.0182,0.0312 -0.0248,0.0695 -0.0182,0.10715 l 0.30572,1.1406 -1.08722,-0.62758 c -0.0832,-0.0493 -0.18851,-0.0363 -0.25869,0.0249 -0.0182,0.0123 -0.0334,0.0271 -0.0447,0.047 l -0.0182,0.0172 c -0.0182,0.0197 -0.0182,0.041 -0.0182,0.0621 -0.0182,0.0913 0.0226,0.18758 0.107,0.23691 l 1.08691,0.62766 -1.14046,0.30558 c -0.0374,0.009 -0.0658,0.0347 -0.0852,0.0658 0,0.006 0,0.009 0,0.0151 0,0.006 0,0.009 -0.0182,0.0151 -0.026,0.0498 -0.0365,0.1103 -0.0217,0.17018 0.0325,0.11997 0.15512,0.1907 0.27441,0.15849 l 1.54111,-0.41292 1.7211,0.99373 -3.88846,1.07983 3.88846,1.07984 -1.7211,0.99372 -1.54111,-0.41293 c -0.1212,-0.032 -0.24223,0.0388 -0.27441,0.15851 -0.0182,0.0599 0,0.12054 0.0217,0.17017 0,0.006 0,0.009 0.0182,0.0152 0,0.006 0,0.009 0,0.0151 0.0186,0.0313 0.0475,0.0556 0.0852,0.0657 l 1.14046,0.30564 -1.08691,0.62767 c -0.0832,0.0493 -0.12628,0.14554 -0.107,0.23689 0,0.0211 0,0.0425 0.0182,0.0623 l 0.0182,0.0172 c 0.0182,0.0197 0.026,0.0354 0.0447,0.047 0.07,0.0612 0.17336,0.0743 0.25869,0.0249 l 1.08722,-0.62755 -0.30572,1.1406 c -0.0182,0.0379 0,0.076 0.0182,0.10715 0,0.006 0,0.008 0.0182,0.0137 0,0.006 0,0.0124 0,0.0168 0.0291,0.0498 0.076,0.0882 0.13648,0.10429 0.12121,0.0321 0.24233,-0.0384 0.27442,-0.1585 l 0.41298,-1.54096 1.72115,-0.99381 -1.00892,3.90748 2.87919,-2.82771 v 1.98758 l -1.12799,1.12805 c -0.0888,0.0879 -0.0888,0.22925 0,0.31705 0.044,0.044 0.10113,0.0658 0.15868,0.0658 0,0 0.0182,-3.8e-4 0.0182,-3.8e-4 0,3.8e-4 0.0182,9.4e-4 0.0182,9.4e-4 0.036,0 0.0723,-0.0136 0.10114,-0.0416 l 0.83482,-0.83505 v 1.25528 c 0,0.0986 0.0623,0.18164 0.15178,0.21181 0.0182,0.01 0.0391,0.0152 0.0615,0.0152 h 0.0204 c 0.0225,0 0.0438,-0.006 0.0615,-0.0152 0.0906,-0.0303 0.15177,-0.11329 0.15177,-0.21181 v -1.25528 l 0.83543,0.83505 c 0.026,0.0278 0.0636,0.0416 0.0988,0.0416 0,0 0.0182,-4e-4 0.0182,-9.4e-4 0,3.8e-4 0.0182,3.8e-4 0.0182,3.8e-4 0.0558,0 0.11604,-0.0219 0.15868,-0.0658 0.0907,-0.0877 0.0907,-0.22922 0,-0.31705 l -1.12817,-1.12816 v -1.98761 l 2.87949,2.82771 -1.00918,-3.90749 0.45316,0.26167 1.26825,0.73214 0.41255,1.54098 c 0.0325,0.11997 0.15517,0.19061 0.27469,0.15849 0.0587,-0.0168 0.10698,-0.0548 0.1366,-0.10429 0,-0.006 0,-0.009 0,-0.0168 0,-0.006 0,-0.008 0.0182,-0.0137 0.0182,-0.0313 0.0234,-0.0695 0.0182,-0.10715 l -0.30555,-1.14061 1.0868,0.62759 c 0.0833,0.0493 0.18881,0.0363 0.2592,-0.025 0.0182,-0.0123 0.0348,-0.0273 0.0447,-0.047 l 0.0182,-0.0172 c 0.0182,-0.0195 0.0182,-0.0407 0.0182,-0.0617 0.0182,-0.0916 -0.0226,-0.18792 -0.10701,-0.23729 l -1.08719,-0.62766 1.14065,-0.30567 c 0.0364,-0.009 0.0658,-0.0342 0.0852,-0.0657 0,-0.006 0,-0.009 0,-0.0151 0,-0.006 0,-0.01 0.0182,-0.0151 0.0283,-0.0497 0.0374,-0.11015 0.0225,-0.17016 -0.0325,-0.11998 -0.15512,-0.1907 -0.27441,-0.15851 l -1.54089,0.41291 -1.72133,-0.99379 3.88848,-1.07976 -3.88848,-1.07976 1.72133,-0.99379 1.54089,0.41293 c 0.1212,0.032 0.24237,-0.0388 0.27441,-0.15851 0.0182,-0.0599 0,-0.12054 -0.0225,-0.17019 0,-0.006 0,-0.009 -0.0182,-0.0151 0,-0.006 0,-0.01 0,-0.0151 -0.0182,-0.0313 -0.0461,-0.0557 -0.0832,-0.0658 l -1.14089,-0.30557 1.08735,-0.62768 c 0.0833,-0.0493 0.12616,-0.14555 0.10692,-0.23689 0,-0.0212 0,-0.0425 -0.0182,-0.0621 l -0.0182,-0.0172 c -0.0182,-0.0198 -0.0257,-0.0353 -0.0447,-0.047 -0.0701,-0.0612 -0.17357,-0.0743 -0.25908,-0.0248 l -1.08697,0.6276 0.30564,-1.14061 c 0.0182,-0.0378 0,-0.076 -0.0182,-0.10715 0,-0.006 0,-0.008 -0.0182,-0.0137 0,-0.006 0,-0.0123 0,-0.0168 -0.0283,-0.0498 -0.0769,-0.0883 -0.13649,-0.10428 -0.12125,-0.0321 -0.24253,0.0384 -0.27467,0.15851 l -0.41294,1.54095 -1.268,0.73214 -0.45324,0.26165 1.00902,-3.90749 -2.87933,2.82774 v -1.98767 l 1.1283,-1.12806 c 0.0906,-0.0877 0.0906,-0.22923 0,-0.31704 -0.0429,-0.0439 -0.10115,-0.0658 -0.15869,-0.0658 0,0 -0.0182,3.9e-4 -0.0182,3.9e-4 0,-3.9e-4 -0.0187,-9.4e-4 -0.0187,-9.4e-4 -0.0356,0 -0.0723,0.0137 -0.10115,0.0413 l -0.83512,0.83505 v -1.25523 c 0,-0.0985 -0.0615,-0.18167 -0.15177,-0.21184 -0.0182,-0.009 -0.0395,-0.0151 -0.0615,-0.0151 z m -1.2832,4.41322 1.06899,1.04976 v 0.80168 l -0.69452,-0.4008 z m 2.58617,0 -0.37438,1.45057 -0.69443,0.40087 v -0.80168 z m -2.43564,1.83882 0.69416,0.40087 -0.69416,0.4009 -1.44357,-0.4009 z m 2.28525,0 1.44348,0.40087 -1.44348,0.4009 -0.69438,-0.4009 0.19524,-0.11261 z m -1.36679,0.78913 v 0.80169 l -1.06899,1.04976 0.37447,-1.45064 z m 0.44806,0 0.69443,0.40087 0.37469,1.45058 -1.06912,-1.04976 z"
           style="opacity:1;fill:#5ec2e7;fill-opacity:1;stroke:#2a2533;stroke-width:0.11459765;stroke-linecap:round;stroke-linejoin:round;stroke-miterlimit:4;stroke-dasharray:none;stroke-dashoffset:0;stroke-opacity:1" />
        <path
           inkscape:connector-curvature="0"
           style="font-style:italic;font-variant:normal;font-weight:normal;font-stretch:semi-expanded;font-size:54.04482651px;line-height:1.25;font-family:'Harlow Solid Italic';-inkscape-font-specification:'Harlow Solid Italic, Italic Semi-Expanded';font-variant-ligatures:normal;font-variant-caps:normal;font-variant-numeric:normal;font-feature-settings:normal;text-align:start;letter-spacing:0px;word-spacing:0px;writing-mode:lr-tb;text-anchor:start;fill:#faf6f0;fill-opacity:1;stroke:#2a2533;stroke-width:0.36671251;stroke-miterlimit:4;stroke-dasharray:none;stroke-opacity:1"
           d="m 665.01465,158.28576 c -0.77164,0 -1.33299,0.42796 -1.68445,1.28362 l -0.12614,0.30927 -4.79827,11.58872 -3.36356,-0.0109 1.62977,-4.08307 c 0.20627,-0.50423 0.30953,-0.87867 0.30953,-1.12314 0,-0.29796 -0.11849,-0.55392 -0.35531,-0.76783 -0.22919,-0.21391 -0.5042,-0.32072 -0.82505,-0.32072 -0.77927,0 -1.34472,0.43151 -1.69616,1.29481 l -0.12615,0.32097 -1.89072,4.65279 c -0.002,0.006 -0.004,0.0108 -0.007,0.0165 l -5.12762,-0.0165 3.63264,-3.50676 c 0.48133,-0.47367 0.72205,-0.94349 0.72205,-1.40952 0,-0.9015 -0.53094,-1.35229 -1.59289,-1.35229 h -3.56398 -0.28663 c -0.47364,0 -0.87474,0.14891 -1.20325,0.44687 -0.32852,0.29031 -0.49265,0.64926 -0.49265,1.0771 0,0.68758 0.41624,1.03158 1.24903,1.03158 h 0.28664 l 1.27192,-0.0458 -3.74734,3.60976 c -0.51189,0.4966 -0.76784,0.93977 -0.76784,1.3294 0,0.40492 0.13746,0.72557 0.41251,0.96239 0.28267,0.23684 0.66094,0.35384 1.13459,0.35532 l 14.83046,0.0404 c 0.61118,0.002 1.08485,-0.1299 1.42096,-0.38965 0.10188,-0.0769 0.18672,-0.16408 0.25841,-0.25917 0.16938,-0.1866 0.31975,-0.4329 0.45067,-0.75536 l 1.28338,-3.17434 2.6588,3.97651 0.13733,0.20626 c 0.23685,0.34379 0.5159,0.51579 0.83676,0.51579 0.3667,0 0.69525,-0.14131 0.98554,-0.42398 0.29795,-0.28268 0.44687,-0.59976 0.44687,-0.9512 0,-0.22155 -0.11085,-0.50416 -0.33241,-0.84795 l -1.77626,-2.7847 1.70759,-1.24929 0.26349,-0.19482 c 0.56539,-0.42019 0.84821,-0.8862 0.84821,-1.39807 0,-0.30559 -0.10705,-0.56156 -0.32097,-0.76783 -0.21392,-0.20629 -0.4813,-0.30927 -0.80218,-0.30927 -0.38201,0 -0.84039,0.19863 -1.37518,0.5959 l -2.57844,1.91386 2.92229,-7.19688 0.1259,-0.30927 c 0.1222,-0.29795 0.18337,-0.56151 0.18337,-0.79072 0,-0.29796 -0.11465,-0.55393 -0.34385,-0.76783 -0.22921,-0.21393 -0.50418,-0.32097 -0.82506,-0.32097 z"
           id="path4088" />
        <rect
           rx="1.4879853"
           ry="1.4879853"
           y="175.08949"
           x="640.01324"
           height="2.7952952"
           width="5.470499"
           id="rect4090"
           style="opacity:1;fill:#faf6f0;fill-opacity:1;stroke:#2a2533;stroke-width:0.36671251;stroke-linecap:butt;stroke-linejoin:round;stroke-miterlimit:4;stroke-dasharray:none;stroke-dashoffset:0;stroke-opacity:1" />
      </g>
    </g>
  </g>
</svg>
