<?xml version="1.0" encoding="UTF-8" standalone="no"?>
<!-- Created with Inkscape (http://www.inkscape.org/) -->

<svg
   xmlns:dc="http://purl.org/dc/elements/1.1/"
   xmlns:cc="http://creativecommons.org/ns#"
   xmlns:rdf="http://www.w3.org/1999/02/22-rdf-syntax-ns#"
   xmlns:svg="http://www.w3.org/2000/svg"
   xmlns="http://www.w3.org/2000/svg"
   xmlns:sodipodi="http://sodipodi.sourceforge.net/DTD/sodipodi-0.dtd"
   xmlns:inkscape="http://www.inkscape.org/namespaces/inkscape"
   width="34.000004"
   height="34.000031"
   viewBox="0 0 8.9958343 8.9958413"
   version="1.1"
   id="svg829"
   sodipodi:docname="phone.svg"
   inkscape:version="0.92.2 (5c3e80d, 2017-08-06)">
  <defs
     id="defs823" />
  <sodipodi:namedview
     id="base"
     pagecolor="#ffffff"
     bordercolor="#666666"
     borderopacity="1.0"
     inkscape:pageopacity="0.0"
     inkscape:pageshadow="2"
     inkscape:zoom="22.352921"
     inkscape:cx="17.000002"
     inkscape:cy="17.000015"
     inkscape:document-units="px"
     inkscape:current-layer="layer1"
     showgrid="false"
     inkscape:snap-others="false"
     inkscape:object-nodes="false"
     showborder="true"
     inkscape:window-width="1680"
     inkscape:window-height="987"
     inkscape:window-x="-8"
     inkscape:window-y="-8"
     inkscape:window-maximized="1"
     units="px"
     fit-margin-top="1"
     fit-margin-left="1"
     fit-margin-right="1"
     fit-margin-bottom="1" />
  <metadata
     id="metadata826">
    <rdf:RDF>
      <cc:Work
         rdf:about="">
        <dc:format>image/svg+xml</dc:format>
        <dc:type
           rdf:resource="http://purl.org/dc/dcmitype/StillImage" />
        <dc:title />
      </cc:Work>
    </rdf:RDF>
  </metadata>
  <g
     inkscape:label="Layer 1"
     inkscape:groupmode="layer"
     id="layer1"
     transform="translate(-54.836303,-113.32938)">
    <path
       id="path4467"
       d="m 56.929238,119.15619 c 0.799182,0.95138 1.761308,1.70046 2.859397,2.23049 0.418088,0.1973 0.977191,0.43138 1.600175,0.47152 0.03909,0.002 0.07532,0.004 0.114128,0.004 0.418088,0 0.753893,-0.14379 1.027629,-0.43974 0,-0.002 0,-0.005 0.0095,-0.009 0.09735,-0.11704 0.208138,-0.22237 0.324078,-0.3344 0.07914,-0.0752 0.159512,-0.15382 0.236742,-0.23408 0.357639,-0.37119 0.357639,-0.8427 0,-1.2022 l -1.009132,-1.00489 c -0.17124,-0.17723 -0.376136,-0.27087 -0.591044,-0.27087 -0.214907,0 -0.421425,0.0936 -0.597718,0.2692 l -0.60115,0.59859 c -0.0553,-0.0318 -0.112507,-0.0602 -0.166186,-0.0869 -0.06674,-0.0335 -0.129288,-0.0652 -0.184684,-0.10032 -0.547375,-0.34611 -1.044409,-0.79756 -1.519608,-1.37776 -0.240079,-0.30264 -0.401308,-0.55678 -0.513815,-0.81595 0.157892,-0.14212 0.305676,-0.29092 0.448312,-0.43639 0.05053,-0.0519 0.102496,-0.10367 0.154555,-0.15551 0.181346,-0.18058 0.278693,-0.38957 0.278693,-0.60193 0,-0.21235 -0.09573,-0.42135 -0.278693,-0.60193 l -0.500372,-0.49827 c -0.05911,-0.0584 -0.114223,-0.11537 -0.171335,-0.17388 -0.110791,-0.1137 -0.226635,-0.23075 -0.340763,-0.33609 -0.172956,-0.16888 -0.376136,-0.25748 -0.591044,-0.25748 -0.213286,0 -0.418088,0.0885 -0.597813,0.25916 l -0.627942,0.62534 c -0.228351,0.22739 -0.357639,0.50328 -0.384527,0.82264 -0.03242,0.39961 0.04195,0.82431 0.233405,1.33762 0.293853,0.79421 0.737112,1.53159 1.395279,2.3191 z m -1.218986,-3.62162 c 0.02002,-0.22238 0.105737,-0.40797 0.266966,-0.56849 l 0.624605,-0.622 c 0.09735,-0.0936 0.204801,-0.14212 0.308918,-0.14212 0.1024,0 0.206517,0.0485 0.302244,0.14547 0.112507,0.10366 0.218244,0.21236 0.332468,0.32772 0.05721,0.0584 0.115844,0.11704 0.174576,0.17723 l 0.500371,0.49827 c 0.104117,0.10367 0.157796,0.209 0.157796,0.31267 0,0.10366 -0.05339,0.20901 -0.157796,0.31267 -0.05244,0.0519 -0.104117,0.10533 -0.156175,0.15717 -0.15608,0.15717 -0.302148,0.30598 -0.463377,0.44811 0,0.004 0,0.005 -0.0095,0.009 -0.139395,0.13878 -0.117561,0.27087 -0.0839,0.37119 0,0.005 0,0.009 0.0095,0.0134 0.129288,0.30932 0.308918,0.60361 0.589328,0.95473 0.503708,0.61865 1.034303,1.09852 1.618672,1.46803 0.07246,0.0468 0.149406,0.0836 0.221582,0.1204 0.0677,0.0334 0.129288,0.0652 0.184683,0.10031 0.0095,0.004 0.01144,0.007 0.01812,0.0101 0.0553,0.0284 0.10917,0.0417 0.162945,0.0417 0.134245,0 0.221581,-0.0853 0.25009,-0.1137 l 0.628037,-0.62534 c 0.09735,-0.097 0.203085,-0.14881 0.307202,-0.14881 0.127667,0 0.231784,0.0787 0.29719,0.14881 l 1.012564,1.00657 c 0.201464,0.20063 0.199748,0.41801 0,0.63035 -0.07055,0.0752 -0.144447,0.14714 -0.223393,0.22239 -0.11756,0.1137 -0.240079,0.23073 -0.35087,0.36282 -0.193169,0.20733 -0.423141,0.30431 -0.720331,0.30431 -0.0286,0 -0.05911,-0.002 -0.08772,-0.004 -0.550713,-0.0352 -1.062906,-0.24913 -1.447337,-0.43138 -1.044409,-0.50328 -1.961152,-1.21723 -2.721814,-2.12348 -0.626226,-0.75074 -1.047747,-1.44965 -1.32644,-2.19872 -0.172956,-0.4598 -0.238363,-0.82933 -0.211571,-1.1654 z"
       inkscape:connector-curvature="0"
       style="fill:#e9ddaf;fill-opacity:1;stroke:#e9ddaf;stroke-width:0.39687499;stroke-miterlimit:4;stroke-dasharray:none;stroke-opacity:1" />
  </g>
</svg>
