<?xml version="1.0" encoding="UTF-8" standalone="no"?>
<!-- Created with Inkscape (http://www.inkscape.org/) -->

<svg
   xmlns:dc="http://purl.org/dc/elements/1.1/"
   xmlns:cc="http://creativecommons.org/ns#"
   xmlns:rdf="http://www.w3.org/1999/02/22-rdf-syntax-ns#"
   xmlns:svg="http://www.w3.org/2000/svg"
   xmlns="http://www.w3.org/2000/svg"
   xmlns:sodipodi="http://sodipodi.sourceforge.net/DTD/sodipodi-0.dtd"
   xmlns:inkscape="http://www.inkscape.org/namespaces/inkscape"
   width="74"
   height="67"
   viewBox="0 0 19.579166 17.727085"
   version="1.1"
   id="svg829"
   sodipodi:docname="pizza.svg"
   inkscape:version="0.92.2 (5c3e80d, 2017-08-06)">
  <defs
     id="defs823" />
  <sodipodi:namedview
     id="base"
     pagecolor="#ffffff"
     bordercolor="#666666"
     borderopacity="1.0"
     inkscape:pageopacity="0.0"
     inkscape:pageshadow="2"
     inkscape:zoom="5.6568542"
     inkscape:cx="17.540537"
     inkscape:cy="24.445225"
     inkscape:document-units="px"
     inkscape:current-layer="layer1"
     showgrid="false"
     inkscape:snap-others="false"
     inkscape:object-nodes="false"
     showborder="true"
     inkscape:window-width="1680"
     inkscape:window-height="987"
     inkscape:window-x="-8"
     inkscape:window-y="-8"
     inkscape:window-maximized="1"
     inkscape:pagecheckerboard="true"
     units="px"
     fit-margin-top="1"
     fit-margin-left="1"
     fit-margin-bottom="1"
     fit-margin-right="1" />
  <metadata
     id="metadata826">
    <rdf:RDF>
      <cc:Work
         rdf:about="">
        <dc:format>image/svg+xml</dc:format>
        <dc:type
           rdf:resource="http://purl.org/dc/dcmitype/StillImage" />
        <dc:title></dc:title>
      </cc:Work>
    </rdf:RDF>
  </metadata>
  <g
     inkscape:label="Layer 1"
     inkscape:groupmode="layer"
     id="layer1"
     transform="translate(-5.8208572,-137.6349)">
    <path
       style="color:#000000;font-style:normal;font-variant:normal;font-weight:normal;font-stretch:normal;font-size:medium;line-height:normal;font-family:sans-serif;font-variant-ligatures:normal;font-variant-position:normal;font-variant-caps:normal;font-variant-numeric:normal;font-variant-alternates:normal;font-feature-settings:normal;text-indent:0;text-align:start;text-decoration:none;text-decoration-line:none;text-decoration-style:solid;text-decoration-color:#000000;letter-spacing:normal;word-spacing:normal;text-transform:none;writing-mode:lr-tb;direction:ltr;text-orientation:mixed;dominant-baseline:auto;baseline-shift:baseline;text-anchor:start;white-space:normal;shape-padding:0;clip-rule:nonzero;display:inline;overflow:visible;visibility:visible;opacity:1;isolation:auto;mix-blend-mode:normal;color-interpolation:sRGB;color-interpolation-filters:linearRGB;solid-color:#000000;solid-opacity:1;vector-effect:none;fill:#ffffff;fill-opacity:1;fill-rule:nonzero;stroke:none;stroke-width:0.50910896;stroke-linecap:round;stroke-linejoin:round;stroke-miterlimit:4;stroke-dasharray:none;stroke-dashoffset:0;stroke-opacity:1;color-rendering:auto;image-rendering:auto;shape-rendering:auto;text-rendering:auto;enable-background:accumulate"
       d="m 12.997765,137.80678 a 0.25457995,0.25457995 0 0 0 -0.088,0.015 c -0.5391,0.038 -0.9608,0.429 -1.0748,0.8858 -0.095,0.3799 -0.1402,0.7465 0.035,1.0986 l -5.6317994,14.0222 c 0,0 0,0.01 0,0.011 -1e-4,0 -1e-4,0 -1e-4,0 -0.012,0.032 -0.024,0.067 -0.035,0.1051 -0.036,0.1184 -0.072,0.2644 -0.094,0.4117 -0.023,0.1474 -0.039,0.2879 0,0.4402 0.017,0.076 0.05,0.1725 0.1538,0.2446 0.1033,0.072 0.2485999,0.067 0.3408,0.03 l 4.3706004,-1.7302 c 0.068,0.1005 0.141099,0.203 0.242,0.2935 0.1329,0.1191 0.359999,0.203 0.573899,0.1389 0.2399,-0.072 0.3967,-0.2726 0.4685,-0.4687 0.061,-0.1676 0.083,-0.3412 0.098,-0.5112 l 2.6837,-1.0625 c 0.046,0.2078 0.075,0.4559 0.1028,0.7023 0.034,0.2983 0.064,0.591 0.157,0.8428 0.047,0.126 0.1112,0.2479 0.2244,0.3426 0.1133,0.095 0.2783,0.1423 0.4349,0.1243 0.1665,-0.019 0.3186,-0.1175 0.409,-0.2416 0.09,-0.124 0.1351,-0.2647 0.1655,-0.4152 0.061,-0.3012 0.061,-0.6559 0.062,-1.0305 0.001,-0.3204 0.01,-0.6523 0.037,-0.955 l 1.2203,-0.4831 0.8847,-0.3497 c 0,0 1.6278,-0.6435 2.4417,-0.9653 0.56,-0.2214 1.0887,-0.4147 1.6966,-0.671 0.5313,-0.224 1.3288,-0.2214 1.9978,-0.9159 0.1744,-0.1809 0.2442,-0.4088 0.258,-0.6128 0.014,-0.2039 -0.019,-0.3926 -0.046,-0.5515 0,0 0,0 0,0 0,0 0,0 0,0 -0.05,-0.2934 -0.089,-0.4931 -0.2132,-0.7251 -0.1243,-0.2331 -0.3158,-0.4835 -0.681,-0.9612 -0.7548,-0.9876 -2.4636,-2.7356 -3.9932,-3.7771 -2.0991,-1.4294 -4.2809,-2.6091 -6.9375,-3.2473 -0.086,-0.021 -0.1708,-0.031 -0.2541,-0.031 z m 0,0.5093 v 0 c 0.045,0 0.091,0.01 0.138199,0.017 2.5798,0.6198 4.6985,1.7627 6.7698,3.173 1.4546,0.9904 3.1715,2.7446 3.8753,3.6654 0.1178,0.1541 0.2147,0.2818 0.2972,0.3926 -0.01,0 -0.02,-9e-4 -0.03,-9e-4 -0.1578,0 -0.3173,0.035 -0.4678,0.096 -0.4408,0.1784 -0.8386,0.581 -1.0375,1.1269 -2.1968,-3.2754 -5.7348,-5.8068 -9.957,-7.1328 -0.001,0 0,0 0,-9e-4 -0.085,-0.027 -0.1693,-0.053 -0.254399,-0.078 -0.111101,-0.2109 -0.085,-0.389 0,-0.743 0.058,-0.2337 0.350199,-0.5171 0.664999,-0.5152 z m -0.696,1.7904 c 4.288999,1.3173 7.843799,3.9013 9.973699,7.2218 -0.1756,0.066 -0.6059,0.2299 -1.1335,0.434 -0.2578,-0.2628 -0.5938,-0.4582 -0.9704,-0.5684 -0.2741,-0.08 -0.5545,-0.1115 -0.8268,-0.099 v 0 c -0.8171,0.037 -1.562,0.4693 -1.8495,1.1852 -0.1174,0.2926 -0.1411,0.6092 -0.073,0.9132 -0.341,0.1342 -0.6673,0.3177 -0.917,0.634 -0.4643,0.5886 -0.4206,1.4823 -0.4228,2.2283 0,0.373 -0.01,0.7129 -0.052,0.9311 -0.022,0.109 -0.054,0.1839 -0.078,0.2165 -0.024,0.033 -0.023,0.032 -0.056,0.035 -0.043,0 -0.036,0 -0.05,-0.01 -0.014,-0.012 -0.045,-0.053 -0.074,-0.1294 -0.057,-0.1536 -0.095,-0.4265 -0.1284,-0.7228 -0.034,-0.2963 -0.066,-0.6183 -0.1506,-0.9112 -0.084,-0.2929 -0.2295,-0.5845 -0.5271,-0.7231 -0.4566,-0.2126 -0.9905,-0.094 -1.478,0.089 -0.4876,0.1832 -0.9367,0.4505 -1.2194,0.6588 -0.1975,0.1457 -0.2894,0.3623 -0.3384,0.5681 -0.049,0.2057 -0.062,0.4153 -0.078,0.6056 -0.017,0.1903 -0.039,0.361 -0.078,0.4668 -0.039,0.1058 -0.062,0.1337 -0.1366,0.1559 -0.052,0.016 -0.034,0.018 -0.088,-0.03 -0.054,-0.048 -0.1333,-0.161 -0.2244,-0.295 -0.091,-0.134 -0.1976,-0.2896 -0.3521,-0.4213 -0.1547,-0.1317 -0.3698,-0.2342 -0.622,-0.2329 -0.2937,0 -0.6525,0.104 -1.0710999,0.244 -0.4186,0.1399 -0.8832,0.3224 -1.3169999,0.5006 -0.3997,0.1642 -0.7549,0.3171 -1.037,0.4361 z m 2.633099,1.4555 c -0.012,0 -0.024,0 -0.036,0 v 0 c -0.048,0.01 -0.093,0.028 -0.1261,0.062 -0.033,0.034 -0.051,0.085 -0.038,0.1389 0.041,0.1765 -0.018,0.4644 -0.2271,0.7091 a 0.03818699,0.03818699 0 0 0 -10e-4,0 c -0.3477,0.4301 -0.9585,0.5933 -1.3823,0.4047 -0.067,-0.03 -0.1342,-0.01 -0.1702,0.036 -0.025,0.029 -0.039,0.072 -0.02,0.1098 0.1643,0.3302 0.013,0.6747 -0.3304,0.8107 -0.3425,0.135 -0.7895,0.017 -1.0136,-0.2904 -0.02,-0.028 -0.051,-0.043 -0.08,-0.048 -0.03,0 -0.06,-9e-4 -0.086,0.01 -0.027,0.01 -0.051,0.027 -0.067,0.052 -0.016,0.025 -0.02,0.062 0,0.093 0.011,0.022 0.022,0.043 0.034,0.063 v -0.024 c 0.01,0 0.034,0 0.034,0 0,0 0.01,0.019 0.014,0.028 l -0.047,-0.01 c 0.2558,0.4212 0.8406,0.6063 1.3482,0.4376 0.032,-0.011 0.048,-0.017 0.076,-0.03 0.3914,-0.1785 0.5761,-0.5463 0.4915,-0.9066 0.5357,0.1558 1.179,-0.051 1.5597,-0.5132 a 0.03818699,0.03818699 0 0 0 9e-4,0 0.03818699,0.03818699 0 0 0 0.012,-0.011 c 0.2167,-0.3 0.3078,-0.6582 0.2558,-0.9738 -0.01,-0.062 -0.045,-0.1077 -0.089,-0.1326 -0.033,-0.019 -0.07,-0.027 -0.1067,-0.026 z m 1.2304,1.862 h -10e-5 c -0.813799,0 -1.3395,0.2459 -1.7096,0.6123 a 0.25457995,0.25457995 0 0 0 -0.012,0.013 c -0.1302,0.1482 -0.2276,0.319 -0.262,0.5102 -0.037,0.2074 -10e-4,0.4343 0.1419,0.5911 0.1429,0.1569 0.342,0.2274 0.577,0.2697 0.1772,0.032 0.4545,0.046 0.7169,0.064 l -0.228299,0.8268 c -0.044,0.1607 0.015,0.322 0.1058,0.4259 0.091,0.1038 0.213199,0.1702 0.352299,0.1952 l 1.1969,0.2153 c 0.1392,0.025 0.2768,0.01 0.3981,-0.06 0.1212,-0.066 0.2333,-0.1964 0.2477,-0.3625 l 0.074,-0.853 c 0.2533,0.074 0.5203,0.1569 0.6942,0.1882 0.2351,0.042 0.4462,0.046 0.6348,-0.052 0.1886,-0.097 0.3018,-0.2971 0.3391,-0.5045 0.037,-0.2064 10e-4,-0.4019 -0.07,-0.5751 a 0.25457995,0.25457995 0 0 0 0,-0.011 c -0.1595,-0.3436 -0.3917,-0.6496 -0.755,-0.8832 -0.3569,-0.2294 -0.8337,-0.3915 -1.4921,-0.5127 a 0.25457995,0.25457995 0 0 0 -0.01,0 v 0 c -0.01,0 -0.015,0 -0.025,-0.01 a 0.25457995,0.25457995 0 0 0 -0.035,0 c -0.3243,-0.056 -0.6187,-0.086 -0.8794,-0.087 z m -0.123,0.5011 c 0.041,-9e-4 0.083,-9e-4 0.1263,0 v 0 c 0.2332,0 0.5038,0.033 0.8213,0.091 0.6388,0.1149 1.0568,0.2669 1.338,0.4476 0.2794,0.1797 0.4348,0.3848 0.5653,0.6647 0.047,0.116 0.058,0.1757 0.038,0.286 -0.02,0.1129 -0.039,0.1254 -0.071,0.1422 -0.033,0.017 -0.1316,0.035 -0.3113,0 -0.1724,-0.031 -0.5449,-0.1456 -0.9429,-0.2576 a 0.25457995,0.25457995 0 0 0 -0.3224,0.2228 l -0.097,1.1167 c -0.012,0 -0.029,0.01 -0.052,0.01 l -1.196799,-0.2153 c -0.022,0 -0.036,-0.015 -0.047,-0.023 l 0.298799,-1.0822 a 0.25457995,0.25457995 0 0 0 -0.224999,-0.3216 c -0.411701,-0.033 -0.7979,-0.054 -0.9737,-0.085 -0.1797,-0.032 -0.2663,-0.084 -0.290901,-0.1112 -0.025,-0.027 -0.037,-0.045 -0.017,-0.1581 0.013,-0.074 0.06,-0.1649 0.1399,-0.2581 0.271,-0.2656 0.607001,-0.4556 1.219601,-0.4666 z m -3.4494,1.4163 a 0.84759803,0.69657484 3.8153302 0 0 -0.819,0.4622 0.84759803,0.69657484 3.8153302 0 0 0.5413,0.8911 0.84759803,0.69657484 3.8153302 0 0 1.0685,-0.4223 0.84759803,0.69657484 3.8153302 0 0 -0.5412,-0.8911 0.84759803,0.69657484 3.8153302 0 0 -0.2496,-0.04 z m -0.035,0.3815 a 0.38319922,0.31492158 3.8153302 0 1 0.1399,0.018 0.38319922,0.31492158 3.8153302 0 1 0.2447,0.4029 0.38319922,0.31492158 3.8153302 0 1 -0.483,0.1909 0.38319922,0.31492158 3.8153302 0 1 -0.2448,-0.4028 0.38319922,0.31492158 3.8153302 0 1 0.3432,-0.2092 z m 11.4885,0.349 c 0.084,-9e-4 0.1596,0.017 0.2248,0.051 0.1297,0.068 0.2495,0.2084 0.3073,0.5136 0,0.001 0,0 0,0 0.027,0.155 0.049,0.3069 0.04,0.4308 -0.01,0.1241 -0.037,0.2116 -0.1166,0.294 -0.5252,0.5452 -1.1575,0.5166 -1.8289,0.7997 -0.5949,0.2509 -1.1186,0.4424 -1.6862,0.6669 -0.8137,0.3218 -2.4415,0.9651 -2.4415,0.9651 l -0.8846,0.3499 -0.9312,0.3687 c 0.043,-0.1502 0.1,-0.2777 0.1742,-0.3716 0.078,-0.099 0.1753,-0.1815 0.2864,-0.2525 l 1.2667,-0.5009 c 0.078,-0.029 0.156,-0.06 0.2341,-0.092 l 4.0342,-1.5953 a 0.25457995,0.25457995 0 0 0 0.1961,-0.2379 c 0.034,-0.6804 0.4585,-1.1731 0.8506,-1.3318 0.098,-0.04 0.1903,-0.059 0.2742,-0.059 z m -9.521,1.4496 c -0.057,0 -0.113499,0 -0.1694,0 h -10e-4 c -0.2238,0.014 -0.438,0.056 -0.626,0.1255 -0.07,0.026 -0.1143,0.067 -0.1314,0.1157 -0.017,0.049 0,0.101 0.023,0.1416 0.056,0.081 0.175301,0.1306 0.291001,0.081 0.2167,-0.093 0.6115,-0.129 1.002299,-0.023 a 0.03818699,0.03818699 0 0 0 10e-4,0 c 0.3396,0.085 0.6164,0.2465 0.7957,0.4385 0.1792,0.1919 0.2602,0.4115 0.2179,0.6177 -0.01,0.037 0,0.073 0.025,0.098 0.021,0.025 0.05,0.04 0.081,0.047 0.026,0.01 0.049,0.01 0.073,0.01 0.024,0 0.045,-0.015 0.064,-0.03 0.045,-0.036 0.062,-0.092 0.079,-0.1416 0.019,-0.057 0.024,-0.1251 0.028,-0.1784 0.038,-0.5033 -0.4195,-0.9897 -1.0879,-1.2049 a 0.03818699,0.03818699 0 0 0 -0.011,-0.01 c -0.045,-0.014 -0.091,-0.027 -0.1381,-0.039 -0.1703,-0.035 -0.3443,-0.053 -0.515,-0.054 z m -3.178499,0.043 c -0.771701,0.01 -1.5007004,0.4067 -1.7696004,1.0763 -0.3440999,0.8572 0.2262999,1.7572 1.2028004,2.0414 0.976499,0.2844 2.074699,-0.1297 2.4187,-0.987 0.344199,-0.8571 -0.2262,-1.7573 -1.202701,-2.0417 -0.2137,-0.062 -0.433199,-0.091 -0.649199,-0.089 z m 8.108199,0.04 c 0.1887,0 0.3824,0.023 0.5736,0.079 0.2162,0.063 0.3995,0.1701 0.5628,0.2939 -0.7037,0.2752 -1.4802,0.5854 -2.0588,0.8346 l -0.1584,0.063 c -0.1419,0.052 -0.2932,0.1 -0.4475,0.1475 -0.033,-0.186 -0.031,-0.3724 0.041,-0.5518 0.1968,-0.4901 0.766,-0.831 1.4073,-0.8633 0.027,0 0.054,0 0.081,0 z m -8.139,0.4536 c 0.159901,-10e-4 0.325101,0.022 0.4898,0.07 0.753,0.2193 1.1254,0.8715 0.9029,1.4255 -0.2223,0.554 -0.9856,0.8753 -1.738499,0.656 -0.753,-0.2191 -1.1255003,-0.8712 -0.903101,-1.4252 0.1738,-0.4328 0.6777,-0.7238 1.2489,-0.7257 z m 3.104201,3.0901 c 0.130999,0 0.244699,0.017 0.331199,0.057 0.029,0.013 0.056,0.033 0.082,0.06 l -2.417599,0.9573 c 0,-0.016 0.01,-0.031 0.01,-0.046 0.034,-0.145 0.083,-0.2301 0.145199,-0.2761 0.240501,-0.1773 0.667,-0.4308 1.0962,-0.5921 0.268401,-0.1009 0.534701,-0.1581 0.753101,-0.1606 z m -4.065201,1.6689 c 0.1231,-0.001 0.1993,0.036 0.285301,0.1083 l -4.0323004,1.5964 c 0,-0.036 0,-0.046 0,-0.087 0.015,-0.1001 0.04,-0.2073 0.065,-0.2953 0,-9e-4 0,-0.001 0.01,0 0.089,-0.033 0.2074,-0.081 0.354,-0.1429 0.2932,-0.1229 0.6933,-0.2956 1.1217,-0.4716 0.4284,-0.176 0.8852001,-0.3549 1.2849,-0.4885 0.3996,-0.1337 0.7559004,-0.217 0.9125004,-0.2179 z"
       id="path1075"
       inkscape:connector-curvature="0" />
  </g>
</svg>
