<?xml version="1.0" encoding="UTF-8" standalone="no"?>
<!-- Created with Inkscape (http://www.inkscape.org/) -->

<svg
   xmlns:dc="http://purl.org/dc/elements/1.1/"
   xmlns:cc="http://creativecommons.org/ns#"
   xmlns:rdf="http://www.w3.org/1999/02/22-rdf-syntax-ns#"
   xmlns:svg="http://www.w3.org/2000/svg"
   xmlns="http://www.w3.org/2000/svg"
   xmlns:sodipodi="http://sodipodi.sourceforge.net/DTD/sodipodi-0.dtd"
   xmlns:inkscape="http://www.inkscape.org/namespaces/inkscape"
   width="50"
   height="85"
   viewBox="0 0 13.229166 22.489583"
   version="1.1"
   id="svg829"
   sodipodi:docname="prev.svg"
   inkscape:version="0.92.2 (5c3e80d, 2017-08-06)">
  <defs
     id="defs823" />
  <sodipodi:namedview
     id="base"
     pagecolor="#ffffff"
     bordercolor="#666666"
     borderopacity="1.0"
     inkscape:pageopacity="0.0"
     inkscape:pageshadow="2"
     inkscape:zoom="6.3223666"
     inkscape:cx="-6.7030465"
     inkscape:cy="33.556264"
     inkscape:document-units="px"
     inkscape:current-layer="layer1"
     showgrid="false"
     inkscape:snap-others="false"
     inkscape:object-nodes="false"
     showborder="true"
     inkscape:window-width="1680"
     inkscape:window-height="987"
     inkscape:window-x="-8"
     inkscape:window-y="-8"
     inkscape:window-maximized="1"
     units="px"
     fit-margin-top="0"
     fit-margin-left="0"
     fit-margin-right="0"
     fit-margin-bottom="0" />
  <metadata
     id="metadata826">
    <rdf:RDF>
      <cc:Work
         rdf:about="">
        <dc:format>image/svg+xml</dc:format>
        <dc:type
           rdf:resource="http://purl.org/dc/dcmitype/StillImage" />
        <dc:title></dc:title>
      </cc:Work>
    </rdf:RDF>
  </metadata>
  <g
     inkscape:label="Layer 1"
     inkscape:groupmode="layer"
     id="layer1"
     transform="translate(75.516196,-102.12898)">
    <g
       transform="matrix(0.40004825,0,0,0.40308429,-91.411093,-2.1757112)"
       id="g3560"
       style="stroke-width:0.94575071">
      <rect
         style="opacity:0.15;fill:#000000;fill-opacity:1;stroke:none;stroke-width:0.25235462;stroke-linecap:butt;stroke-linejoin:round;stroke-miterlimit:4;stroke-dasharray:none;stroke-dashoffset:0;stroke-opacity:1"
         id="rect3556"
         width="33.068928"
         height="55.793747"
         x="39.732449"
         y="258.76645"
         ry="4.132813" />
      <path
         style="opacity:0.5;fill:#000000;fill-opacity:1;stroke:none;stroke-width:1.2511493;stroke-linecap:butt;stroke-linejoin:round;stroke-miterlimit:4;stroke-dasharray:none;stroke-dashoffset:0;stroke-opacity:1"
         d="m 62.651535,263.86841 c -0.0051,-1.3e-4 -0.0085,6e-4 -0.01344,5.2e-4 -0.03578,-5.7e-4 -0.06952,-3.3e-4 -0.09715,0.002 -0.03124,0.003 -0.05753,0.007 -0.07803,0.014 -0.334717,0.10875 -1.536496,1.49858 -3.150711,3.54447 -0.403556,0.51147 -0.83252,1.06379 -1.280544,1.64746 -8.7e-5,10e-5 8.7e-5,3.9e-4 0,5.3e-4 -0.44795,0.58356 -0.91499,1.19829 -1.393195,1.83451 -0.478375,0.63643 -0.967994,1.2941 -1.462445,1.96369 -0.494361,0.66944 -0.993598,1.35046 -1.489832,2.03348 -8.2e-5,1e-4 8.2e-5,3.9e-4 0,5e-4 -0.496146,0.68292 -0.989473,1.36739 -1.473295,2.04433 -7.9e-5,1.1e-4 8.2e-5,4e-4 0,5e-4 -0.483814,0.67694 -0.958638,1.34588 -1.415934,1.99732 -7.9e-5,10e-5 8e-5,3.9e-4 0,5e-4 -0.457282,0.6514 -0.897564,1.285 -1.314132,1.89137 -7.7e-5,1.1e-4 7.9e-5,4e-4 0,5e-4 -0.416547,0.60635 -0.809863,1.18528 -1.171504,1.72705 -7.4e-5,10e-5 7.5e-5,3.9e-4 0,5e-4 -0.361611,0.54171 -0.692438,1.04619 -0.984953,1.50378 -6.9e-5,1.1e-4 7.1e-5,4e-4 0,5.3e-4 -0.292471,0.45752 -0.546833,0.86773 -0.756026,1.22161 -6.4e-5,1.3e-4 6.3e-5,4.2e-4 0,5.3e-4 -0.104526,0.17685 -0.197982,0.33949 -0.279053,0.48678 -6.4e-5,1.3e-4 6.6e-5,4.2e-4 0,5.3e-4 -0.08102,0.14724 -0.150382,0.27903 -0.206188,0.39428 -5.8e-5,1.3e-4 5.9e-5,4e-4 0,5.3e-4 -0.05574,0.11517 -0.09835,0.21376 -0.127124,0.29456 -4.2e-5,1.1e-4 4.2e-5,4e-4 0,5e-4 -0.01432,0.0402 -0.02579,0.0763 -0.03307,0.1075 -3.2e-5,1.4e-4 3.2e-5,3.7e-4 0,5.1e-4 -0.0072,0.0311 -0.01085,0.0577 -0.01085,0.0796 0,0.022 0.0035,0.0487 0.01085,0.0801 4.5e-5,2.1e-4 -4.7e-5,3.2e-4 0,5.3e-4 0.0073,0.0313 0.01873,0.0672 0.03307,0.10748 6.4e-5,1.8e-4 -6.3e-5,3.4e-4 0,5.3e-4 0.02882,0.0808 0.07134,0.17933 0.127124,0.29456 8.2e-5,1.5e-4 -8.2e-5,3.4e-4 0,5e-4 0.05583,0.1153 0.125138,0.24704 0.206188,0.39431 8.4e-5,1.3e-4 -8.2e-5,3.4e-4 0,5e-4 0.243395,0.44222 0.596318,1.02256 1.035079,1.70894 9e-5,1.4e-4 -8.8e-5,3.7e-4 0,5.3e-4 0.292534,0.45763 0.623326,0.96203 0.984953,1.50376 8.8e-5,1.3e-4 -8.7e-5,4e-4 0,5.3e-4 0.361654,0.54179 0.754947,1.12067 1.171504,1.72702 8.7e-5,1.3e-4 -8.5e-5,3.9e-4 0,5.3e-4 0.416576,0.60637 0.856845,1.23994 1.314132,1.89134 8.5e-5,1.4e-4 -8.4e-5,4e-4 0,5.3e-4 0.457301,0.65143 0.932117,1.32035 1.415934,1.99729 8.5e-5,1.3e-4 -8.2e-5,4e-4 0,5.3e-4 0.483825,0.67693 0.977146,1.36138 1.473295,2.0443 0.496316,0.68313 0.995389,1.36443 1.489832,2.03399 0.494363,0.66947 0.984152,1.32685 1.462445,1.9632 0.478377,0.63643 0.945097,1.25124 1.393195,1.83502 0.448024,0.58367 0.876988,1.13596 1.280544,1.64746 1.614334,2.04599 2.815978,3.43622 3.150711,3.54499 0.02057,0.007 0.04658,0.0112 0.07803,0.0139 0.03162,0.003 0.06883,0.003 0.111104,0.003 0.07641,-0.002 0.174625,-0.0122 0.28422,-0.0264 0.04122,-0.005 0.08912,-0.0131 0.134877,-0.0202 0.05738,-0.009 0.1197,-0.0197 0.183967,-0.031 0.221009,-0.0394 0.474665,-0.0908 0.770496,-0.15811 8.97e-4,-2.1e-4 0.0022,-3.2e-4 0.0031,-5.3e-4 0.06999,-0.0159 0.161303,-0.04 0.235127,-0.0574 0.550029,-0.12941 1.195708,-0.29485 1.926498,-0.4935 0.059,-0.016 0.11566,-0.0311 0.175699,-0.0476 a 0.47666965,0.47666965 0 0 0 0.253733,-0.42116 0.47666965,0.47666965 0 0 0 -0.07183,-0.24961 c -0.0035,-0.004 -0.0079,-0.01 -0.01137,-0.0139 -0.255455,-0.30007 -0.533736,-0.6354 -0.837158,-1.00923 -0.306416,-0.37754 -0.631515,-0.78486 -0.978233,-1.22579 -0.0037,-0.005 -0.0077,-0.009 -0.01137,-0.0139 -0.338302,-0.43032 -0.689438,-0.88297 -1.057818,-1.36218 -0.02116,-0.0275 -0.04283,-0.055 -0.06408,-0.0827 -0.362781,-0.47249 -0.734118,-0.96022 -1.117762,-1.46865 -0.01428,-0.0189 -0.02859,-0.0379 -0.04289,-0.0568 -0.394769,-0.52348 -0.794626,-1.0578 -1.203026,-1.60766 -0.389245,-0.52409 -0.779217,-1.05256 -1.173573,-1.59059 -0.09463,-0.12907 -0.188518,-0.25805 -0.283186,-0.38759 -0.311909,-0.42686 -0.621657,-0.85188 -0.931727,-1.28053 -0.142188,-0.19654 -0.28144,-0.3909 -0.422712,-0.58706 -0.2891,-0.40153 -0.575276,-0.79925 -0.858345,-1.19631 -0.09803,-0.13746 -0.192834,-0.27163 -0.289907,-0.40823 -0.320014,-0.45048 -0.634738,-0.89498 -0.941544,-1.33223 -0.08002,-0.11401 -0.155154,-0.22251 -0.234092,-0.33539 -0.290129,-0.41492 -0.57648,-0.82507 -0.849562,-1.2211 -0.141091,-0.20458 -0.270912,-0.39579 -0.406693,-0.59428 -0.212154,-0.31017 -0.425167,-0.62111 -0.622702,-0.91416 -0.136941,-0.2031 -0.25794,-0.38759 -0.387057,-0.58135 -0.178911,-0.26855 -0.361661,-0.54115 -0.523999,-0.78962 -0.136374,-0.2087 -0.250071,-0.38991 -0.373621,-0.5829 -0.127383,-0.19902 -0.26412,-0.40944 -0.376719,-0.59015 -0.125066,-0.20072 -0.221247,-0.36494 -0.326596,-0.54105 -0.08671,-0.14497 -0.188603,-0.30869 -0.260967,-0.43564 -0.03764,-0.066 -0.06874,-0.12409 -0.102319,-0.18499 -0.03598,-0.0653 -0.07425,-0.1341 -0.105418,-0.19328 -0.02356,-0.0447 -0.04075,-0.0808 -0.0615,-0.12195 -0.0332,-0.0659 -0.06883,-0.1343 -0.09457,-0.19068 -0.02189,-0.048 -0.0343,-0.0837 -0.05064,-0.12454 -0.01417,-0.0355 -0.03303,-0.0775 -0.04289,-0.1075 -0.01955,-0.0593 -0.02844,-0.10467 -0.03049,-0.14158 -2.14e-4,-0.004 -0.0031,-0.0118 -0.0031,-0.0155 0,-1.3e-4 0,-3.9e-4 0,-5.3e-4 8e-6,-0.004 0.0029,-0.0114 0.0031,-0.0155 0.0021,-0.0369 0.01094,-0.0823 0.03049,-0.14158 0.0099,-0.03 0.02872,-0.072 0.04289,-0.1075 0.01635,-0.0408 0.02875,-0.0766 0.05064,-0.12454 0.02574,-0.0564 0.06137,-0.1248 0.09457,-0.19068 0.02075,-0.0412 0.03794,-0.0772 0.0615,-0.12195 0.03117,-0.0592 0.06944,-0.12801 0.105418,-0.19328 0.03358,-0.0609 0.06468,-0.11898 0.102319,-0.185 0.07236,-0.12694 0.17426,-0.29067 0.260967,-0.43563 0.105349,-0.17611 0.20153,-0.34036 0.326596,-0.54105 0.112599,-0.18074 0.249336,-0.39113 0.376719,-0.59015 0.12355,-0.19299 0.237247,-0.3742 0.373621,-0.5829 0.162338,-0.2485 0.345088,-0.52108 0.523999,-0.78963 0.129117,-0.19375 0.250116,-0.37825 0.387057,-0.58137 0.197535,-0.29302 0.410548,-0.60396 0.622702,-0.91413 0.135781,-0.19849 0.265602,-0.38973 0.406693,-0.59428 0.273082,-0.39603 0.559433,-0.80621 0.849562,-1.22113 0.07894,-0.11287 0.154072,-0.22135 0.234092,-0.33539 0.306806,-0.43725 0.62153,-0.88175 0.941544,-1.3322 0.09707,-0.13661 0.191881,-0.27078 0.289907,-0.40826 0.283069,-0.39706 0.569245,-0.79475 0.858345,-1.19631 0.141272,-0.19616 0.280524,-0.39052 0.422712,-0.58703 0.31007,-0.42865 0.619818,-0.85368 0.931727,-1.28056 0.09467,-0.12951 0.188561,-0.25849 0.283186,-0.38756 0.394356,-0.53803 0.784328,-1.06653 1.173573,-1.59059 0.390443,-0.5257 0.772686,-1.03661 1.150834,-1.53842 0.04426,-0.0587 0.08825,-0.11737 0.132292,-0.17569 0.3795,-0.50268 0.747054,-0.98449 1.105876,-1.45161 0.0068,-0.009 0.01336,-0.018 0.02015,-0.0269 0.377225,-0.49091 0.737339,-0.95393 1.083138,-1.39372 0.348433,-0.44313 0.675098,-0.85225 0.982885,-1.23145 0.303422,-0.37383 0.581703,-0.70919 0.837158,-1.00925 0.0035,-0.004 0.0079,-0.01 0.01137,-0.014 a 0.47666965,0.47666965 0 0 0 0.07183,-0.24959 0.47666965,0.47666965 0 0 0 -0.253733,-0.42116 c -0.06004,-0.0164 -0.116703,-0.0315 -0.175699,-0.0476 -0.73079,-0.19865 -1.376469,-0.36408 -1.926498,-0.49351 -0.07312,-0.0171 -0.165849,-0.0417 -0.235127,-0.0574 -0.0012,-2.7e-4 -0.0019,-2.5e-4 -0.0031,-5.2e-4 -0.295831,-0.0673 -0.549487,-0.11871 -0.770496,-0.15812 -0.06427,-0.0113 -0.12659,-0.0223 -0.183967,-0.031 -0.04576,-0.007 -0.09366,-0.0147 -0.134877,-0.0202 -0.109595,-0.0142 -0.207814,-0.0243 -0.28422,-0.0264 -1.38e-4,0 -3.79e-4,0 -5.16e-4,0 z"
         id="path3558"
         inkscape:connector-curvature="0" />
    </g>
  </g>
</svg>
