<?xml version="1.0" encoding="UTF-8" standalone="no"?>
<!-- Created with Inkscape (http://www.inkscape.org/) -->

<svg
   xmlns:dc="http://purl.org/dc/elements/1.1/"
   xmlns:cc="http://creativecommons.org/ns#"
   xmlns:rdf="http://www.w3.org/1999/02/22-rdf-syntax-ns#"
   xmlns:svg="http://www.w3.org/2000/svg"
   xmlns="http://www.w3.org/2000/svg"
   xmlns:sodipodi="http://sodipodi.sourceforge.net/DTD/sodipodi-0.dtd"
   xmlns:inkscape="http://www.inkscape.org/namespaces/inkscape"
   width="74"
   height="74"
   viewBox="0 0 19.579165 19.579169"
   version="1.1"
   id="svg829"
   sodipodi:docname="strawberry.svg"
   inkscape:version="0.92.2 (5c3e80d, 2017-08-06)">
  <defs
     id="defs823" />
  <sodipodi:namedview
     id="base"
     pagecolor="#ffffff"
     bordercolor="#666666"
     borderopacity="1.0"
     inkscape:pageopacity="0.0"
     inkscape:pageshadow="2"
     inkscape:zoom="8"
     inkscape:cx="38.534266"
     inkscape:cy="38.143393"
     inkscape:document-units="px"
     inkscape:current-layer="layer1"
     showgrid="false"
     inkscape:snap-others="false"
     inkscape:object-nodes="false"
     showborder="true"
     inkscape:window-width="1680"
     inkscape:window-height="987"
     inkscape:window-x="-8"
     inkscape:window-y="-8"
     inkscape:window-maximized="1"
     inkscape:pagecheckerboard="true"
     units="px"
     fit-margin-top="1"
     fit-margin-left="1"
     fit-margin-bottom="1"
     fit-margin-right="1" />
  <metadata
     id="metadata826">
    <rdf:RDF>
      <cc:Work
         rdf:about="">
        <dc:format>image/svg+xml</dc:format>
        <dc:type
           rdf:resource="http://purl.org/dc/dcmitype/StillImage" />
        <dc:title></dc:title>
      </cc:Work>
    </rdf:RDF>
  </metadata>
  <g
     inkscape:label="Layer 1"
     inkscape:groupmode="layer"
     id="layer1"
     transform="translate(0.861055,-142.88708)">
    <path
       inkscape:connector-curvature="0"
       id="path1057"
       d="m 4.9689866,143.12485 c -0.17475,0.005 -0.32235,0.073 -0.44545,0.14832 -0.24619,0.15063 -0.41961,0.35552 -0.41961,0.35552 -0.0796,0.0907 -0.0787,0.22654 0.002,0.31626 0.3852,0.4268 0.72642,0.99376 0.92087,1.62989 -0.05741,-0.0318 -0.113031,-0.0602 -0.165371,-0.0811 -0.54751,-0.21866 -1.42724,-0.42511 -2.27738,-0.44132 h -0.004 c -0.85741,-0.0172 -1.81475001,0.18752 -2.28720001,0.37879 a 0.2381488,0.2381488 0 0 0 -0.14831,0.22066 v 0.002 c 6.59e-4,0.13273 0.0928,0.20864 0.14211,0.23823 0.0496,0.0298 0.0892,0.0426 0.13126,0.0548 0.0841,0.0245 0.1765,0.0406 0.27905,0.0589 0.20509,0.0365 0.44767001,0.0791 0.60358001,0.13643 0.28674,0.10551 0.50272,0.20847 0.68161,0.29403 -0.91193,0.18717 -1.71172001,0.81094 -2.07998001,1.68672 -2e-4,4.8e-4 2e-4,5.6e-4 0,0.002 -0.60498,1.35636 -0.52269,2.87371 -0.33228,4.25194 v 0.008 l 0.002,0.008 c 0.30622,1.49418 0.97773,2.84897 1.54100001,4.19922 l 0.004,0.0103 0.006,0.01 c 0.52021,1.0075 1.09984,2.15268 2.21691,2.76572 0.8041,0.51279 1.74347,0.57206 2.60553,0.57206 0.19979,0 0.40478,-0.0101 0.61081,-0.0258 -0.0775,0.15228 -0.16349,0.29716 -0.27285,0.4253 l -0.14469,0.17001 0.1602,0.15812 c 0.2245,0.22024 0.48138,0.58189 0.81803,0.89866 0.33666,0.31678 0.77566,0.59335 1.34772,0.59738 0.52213,0.004 0.9251,0.007 1.32447,-0.12661 0.3993804,-0.13385 0.7656204,-0.40133 1.2071604,-0.87902 0.49673,-0.53736 0.99806,-1.38579 1.34927,-1.87327 0.18411,-0.25545 0.48933,-0.41934 0.83406,-0.59169 0.34473,-0.17234 0.72972,-0.34943 0.99787,-0.70279 0.34586,-0.4559 0.47633,-0.69453 0.59222,-0.90073 0.11588,-0.20621 0.21568,-0.38283 0.54105,-0.78496 0.1168,-0.14437 0.42748,-0.34442 0.77308,-0.55293 0.3456,-0.20852 0.72738,-0.43459 1.01389,-0.72658 0.52505,-0.53566 1.05331,-1.46119 1.21853,-2.2872 0.11341,-0.56678 0.18819,-1.20231 0.15658,-1.79059 -0.0316,-0.58828 -0.16415,-1.14143 -0.52555,-1.51567 l -0.1974,-0.20516 -0.16795,0.22841 c -0.55455,0.74896 -1.08498,0.97582 -1.69912,1.17564 -0.61415,0.19983 -1.3201,0.3563 -2.05673,0.94361 -0.48549,0.38708 -0.65302,0.75494 -0.77359,1.05265 -0.12057,0.29771 -0.19344,0.51504 -0.56431,0.82217 -0.26403,0.21867 -0.49013,0.37091 -0.70642,0.51108 0.32886,-0.90213 0.57966,-1.83671 0.58343,-2.83496 0.0677,-1.41754 -0.0899,-3.11965 -1.32808,-4.15014 l -0.004,-0.004 -0.004,-0.004 c -0.35958,-0.27114 -0.7543,-0.43931 -1.1637504,-0.5271 0.1590304,-0.0598 0.3365104,-0.11976 0.5462204,-0.17621 0.29426,-0.0791 0.57178,-0.13207 0.79685,-0.15607 a 0.2381488,0.2381488 0 0 0 0.002,0 c 0.10835,-0.0126 0.31057,-0.0155 0.31057,-0.0155 a 0.2381488,0.2381488 0 0 0 0.05889,-0.4687 c 0,0 -0.39611,-0.10938 -0.85783,-0.2248 -0.46172,-0.11541 -0.9709304,-0.23675 -1.2733004,-0.26148 a 0.2381488,0.2381488 0 0 0 -0.006,0 c -0.657749,-0.0405 -1.188439,0.0474 -1.648479,0.21446 -0.47008,0.17052 -0.8794,0.43154 -1.12913,0.58239 -0.0594,0.0359 -0.0893,0.0519 -0.13436,0.0786 -0.0661,-0.38982 -0.17481,-0.76955 -0.29921,-1.11776 -0.2492,-0.69757 -0.55362,-1.25611 -0.76171,-1.52962 -0.0442,-0.058 -0.1025,-0.12215 -0.17105,-0.16175 -0.0765,-0.0442 -0.19402,-0.0879 -0.33073,-0.0879 z m 0.0119,0.47646 c 0.0458,-0.001 0.0611,-0.005 0.11111,0.0605 0.14815,0.19474 0.45747,0.74761 0.69143,1.4025 0.14622,0.4093 0.26504,0.86288 0.3147,1.30638 v 5e-4 a 0.2381488,0.2381488 0 0 0 -0.002,0.062 c 0.0238,0.24822 0.0321,0.48822 0.008,0.71004 -1.1e-4,0.001 1.19e-4,0.002 0,0.003 -7.1e-5,6.7e-4 7.9e-5,0.001 0,0.002 -10e-6,0.002 -3.1e-5,0.003 0,0.006 -0.009,0.101 -0.0416,0.14164 -0.0842,0.17208 -0.0427,0.0304 -0.107741,0.0451 -0.173631,0.0372 -0.0659,-0.008 -0.125939,-0.0384 -0.160199,-0.078 -0.0343,-0.0397 -0.0562,-0.0853 -0.0408,-0.18552 7.15e-4,-0.003 0.001,-0.005 0.002,-0.008 0.01,-0.0836 0.016,-0.16674 0.0202,-0.24908 0.002,-0.0474 0.002,-0.0941 0.003,-0.14107 4.23e-4,-0.0331 0.002,-0.0663 0.002,-0.0992 -6.35e-4,-0.0602 -0.004,-0.11982 -0.007,-0.17932 -0.001,-0.0174 -0.001,-0.0349 -0.003,-0.0522 -0.007,-0.10659 -0.0177,-0.21241 -0.0331,-0.31627 a 0.2381488,0.2381488 0 0 0 -0.0212,-0.0677 c -0.147892,-0.83503 -0.549792,-1.57452 -1.019582,-2.14922 0.0579,-0.0564 0.0875,-0.0981 0.18552,-0.15813 0.0819,-0.0501 0.16146,-0.0767 0.20722,-0.078 z m -2.406571,1.92753 a 0.2381488,0.2381488 0 0 0 0.006,0 c 0.77592,0.0155 1.62934,0.21609 2.1053,0.40617 0.0509,0.0203 0.27201,0.16078 0.47439,0.29146 0.0315,0.26178 0.0454,0.52754 0.0139,0.80047 -0.0335,0.21911 0.0301,0.42673 0.15244,0.56844 0.0306,0.0354 0.0641,0.067 0.0997,0.0946 0.0357,0.0275 0.0732,0.0509 0.11266,0.0708 0.079,0.0399 0.16394,0.0646 0.25011,0.0749 0.043,0.005 0.087,0.007 0.13074,0.005 0.0434,-0.002 0.0869,-0.008 0.12971,-0.0176 0.0867,-0.0197 0.17102,-0.0555 0.24753,-0.11007 0.15244,-0.10875 0.26193,-0.29697 0.28112,-0.5178 0.001,-0.0118 -3e-5,-0.0234 0.001,-0.0351 0.0214,-0.20451 0.0233,-0.41195 0.0109,-0.6196 0.0956,-0.0541 0.184671,-0.10489 0.32401,-0.18913 0.25889,-0.15639 0.63754,-0.39539 1.04335,-0.5426 0.400621,-0.14546 0.85497,-0.22382 1.453141,-0.18759 0.15627,0.0128 0.548369,0.10504 0.9022694,0.18759 -0.008,0.002 -0.0153,0.002 -0.0238,0.004 -0.5377304,0.14476 -0.9303904,0.31853 -1.2009604,0.44545 -0.0239,0.0112 -0.12076,0.0457 -0.22066,0.0801 -0.0999,0.0344 -0.20901,0.0717 -0.30282,0.11317 a 0.2381488,0.2381488 0 0 0 0.045,0.44959 c 0.0902,0.0206 0.17926,0.0272 0.25786,0.0372 0.0786,0.01 0.16014,0.0482 0.10335,0.0134 0.20546,0.12607 0.6463,0.4451 0.98651,0.88884 0.1985104,0.25892 0.3533904,0.54026 0.4630204,0.85938 0.0255,0.0743 0.0205,0.13406 0.0388,0.20515 -0.20281,-0.13717 -0.42684,-0.25622 -0.6971104,-0.34571 -0.52449,-0.17345 -1.05185,-0.2664 -1.49035,-0.30696 -0.048,-0.004 -0.2019,-0.019 -0.33177,-0.0295 a 0.2381488,0.2381488 0 0 0 -0.19172,0.4005 c 0.11427,0.12051 0.22818,0.27456 0.22066,0.25786 0.0895,0.19831 0.18869,0.53541 0.22273,0.95498 -0.0104,0.34149 -0.0588,0.67549 -0.10956,1.00046 -0.0549,-0.0484 -0.1094,-0.0751 -0.16588,-0.13695 -0.15959,-0.17461 -0.28536,-0.36077 -0.44338,-0.58032 a 0.2381488,0.2381488 0 0 0 -0.002,0 c -0.173421,-0.24074 -0.338811,-0.44817 -0.699191,-0.79065 -0.3515,-0.33411 -0.49698,-0.48845 -0.66404,-0.58808 a 0.2381488,0.2381488 0 0 0 -0.2067,-0.0176 c -0.105879,0.0402 -0.20193,0.10832 -0.31058,0.21291 a 0.2381488,0.2381488 0 0 0 -0.002,0 c -0.103669,0.10015 -0.180159,0.19686 -0.314709,0.34158 -0.13123,0.14141 -0.29891,0.3004 -0.51159,0.55294 -0.174851,0.20742 -0.3322,0.42956 -0.468711,0.64647 -0.10033,-0.27203 -0.231849,-0.54122 -0.250109,-0.81236 -0.0205,-0.28045 0.0101,-0.52406 0.0744,-0.72863 0.0266,-0.0856 0.0563,-0.15908 0.0837,-0.21291 a 0.2381488,0.2381488 0 0 0 -0.232018,-0.34572 l -0.22273,0.0196 a 0.2381488,0.2381488 0 0 0 -0.008,0.002 c -0.43342,0.0511 -0.92332,0.11706 -1.45934,0.31419 -0.103,0.0386 -0.22937,0.10976 -0.35346,0.1757 0.0441,-0.14108 0.0839,-0.28353 0.14262,-0.42736 0.0831,-0.20354 0.22464,-0.48271 0.34572,-0.65629 0.12521,-0.17947 0.2494,-0.30615 0.40824,-0.44959 0.13065,-0.11789 0.36264,-0.24656 0.5333,-0.35553 a 0.2381488,0.2381488 0 0 0 0.004,-0.39843 c -0.31904,-0.21646 -0.94071,-0.48485 -1.13481,-0.57775 -0.17608,-0.0842 -0.42328,-0.20044 -0.73432,-0.31678 0.39291,-0.0733 0.68758,-0.18604 1.08417,-0.17776 z m -0.0274,1.34203 h 0.004 c 0.0451,-8.7e-4 0.0899,0.002 0.13488,0.003 -0.0615,0.0371 -0.12052,0.0723 -0.18191,0.12764 -0.17043,0.15391 -0.32941,0.31456 -0.48059,0.53124 -0.15522,0.22252 -0.29851,0.51372 -0.39429,0.74827 -0.086,0.21071 -0.13978,0.40441 -0.18965,0.55656 -0.0505,0.15406 -0.10631,0.27587 -0.17157,0.39429 a 0.2381488,0.2381488 0 0 0 0.23616,0.35192 c 0.10162,-0.0115 0.16835,-0.0449 0.25219,-0.0822 0.0838,-0.0373 0.17426,-0.0824 0.26355,-0.12868 0.17856,-0.0926 0.36793,-0.19123 0.42581,-0.2129 0.43091,-0.15847 0.82211,-0.21171 1.20716,-0.25993 -0.0636,0.24205 -0.1079,0.50104 -0.0863,0.79685 0.0373,0.55426 0.25512,1.07008 0.45527,1.50586 a 0.2381488,0.2381488 0 0 0 0.44545,-0.0351 c 0.0118,-0.042 0.0125,-0.049 0.031,-0.0899 v -0.002 c 0.0383,-0.0824 0.0911,-0.17891 0.15813,-0.28887 0.12909,-0.21225 0.29429,-0.44123 0.47077,-0.6506 0.19673,-0.2336 0.34983,-0.37724 0.4961,-0.53486 h -0.002 c 0.14325,-0.15408 0.22242,-0.24828 0.2992,-0.32246 0.0246,-0.0237 0.0282,-0.0194 0.0486,-0.0351 0.0823,0.0656 0.18534,0.1552 0.47439,0.42995 0.34457,0.32746 0.47643,0.49347 0.64286,0.72451 0.15394,0.21388 0.29125,0.41781 0.47852,0.6227 0.19776,0.21639 0.39366,0.35926 0.57413,0.4749 a 0.2381488,0.2381488 0 0 0 0.3576,-0.1328 c 0.14326,-0.48781 0.15917,-1.04255 0.17363,-1.52342 a 0.2381488,0.2381488 0 0 0 0,-0.0253 c -0.0341,-0.44918 -0.14012,-0.7914 -0.24805,-1.04902 0.36946,0.0447 0.77507,0.10735 1.18959,0.24443 0.2484,0.0823 0.4469804,0.18283 0.6170204,0.30231 0.1455,0.12183 0.28321,0.25915 0.42375,0.40256 a 0.2381488,0.2381488 0 0 0 0.40824,-0.18552 c -0.0232,-0.28554 -0.0655,-0.61791 -0.1912,-0.98444 -0.12648,-0.36817 -0.30752,-0.69912 -0.53537,-0.99632 -0.20435,-0.26655 -0.4162304,-0.46054 -0.6113304,-0.61495 0.3580004,0.0706 0.6986404,0.20973 1.0020004,0.43718 1.04106,0.87137 1.21035,2.38623 1.14464,3.74603 v 0.006 0.006 c -0.004,1.14768 -0.36902,2.2399 -0.80977,3.3259 -0.11234,0.0836 -0.2261,0.17358 -0.34468,0.28163 -0.46349,0.42234 -0.60283,0.68565 -0.70074,0.91003 -0.0979,0.22438 -0.1574704,0.40157 -0.5705004,0.85369 -0.21599,0.2364 -0.60391,0.45751 -1.00408,0.6935 -0.40017,0.23599 -0.8182,0.48947 -1.0821,0.88057 -0.27387,0.40579 -0.41482,0.88294 -0.5793,1.33221 -0.27523,0.0335 -0.55502,0.047 -0.8325,0.047 -0.83987,0 -1.67445,-0.067 -2.34405,-0.49609 l -0.008,-0.004 -0.008,-0.006 c -0.951088,-0.51711 -1.495258,-1.54574 -2.015368,-2.55281 -0.57014,-1.36589 -1.22086001,-2.69032 -1.50998001,-4.09742 -2.91e-4,-0.001 -0.002,-0.002 -0.002,-0.004 -0.18471,-1.34445 -0.24323,-2.76014 0.29869,-3.97081 l 0.002,-0.002 v -0.004 c 0.36137,-0.86075 1.25560001,-1.44268 2.18746101,-1.44539 z m 15.1153504,3.09387 c 0.16801,0.25212 0.30628,0.57209 0.33022,1.01751 0.0284,0.52823 -0.0406,1.13158 -0.14832,1.66966 -0.13825,0.69119 -0.65297,1.59913 -1.08985,2.04484 -0.22005,0.22425 -0.57272,0.44417 -0.91829,0.65267 -0.34557,0.20851 -0.6828,0.39582 -0.89814,0.66198 -0.33895,0.41892 -0.47026,0.64199 -0.58808,0.85163 -0.11782,0.20964 -0.22337,0.40625 -0.55655,0.84542 -0.17659,0.23271 -0.48194,0.38878 -0.82992,0.56276 -0.34799,0.17398 -0.73833,0.3676 -1.00821,0.74207 -0.37652,0.52259 -0.87965,1.35847 -1.31207,1.82625 -0.41332,0.44718 -0.7037504,0.64847 -1.0061404,0.74982 -0.30238,0.10135 -0.64809,0.10563 -1.16788,0.10181 -0.4226,-0.003 -0.73401,-0.19405 -1.02371,-0.46664 -0.24913,-0.23441 -0.4663,-0.5173 -0.69712,-0.76585 0.51111,-0.73223 0.66858,-1.61264 1.00769,-2.11511 0.18109,-0.26836 0.53677,-0.50561 0.92811,-0.73639 0.39134,-0.23078 0.81477,-0.45461 1.11518,-0.78342 0.4439104,-0.48592 0.5640304,-0.77454 0.6562904,-0.98598 0.0923,-0.21144 0.1528,-0.35335 0.58394,-0.74621 0.52059,-0.47431 0.99496,-0.63171 1.75597,-1.26194 0.44251,-0.36649 0.58539,-0.72348 0.7028,-1.01337 0.1174,-0.28989 0.20982,-0.52164 0.6289,-0.85577 0.65318,-0.52079 1.26019,-0.65342 1.90428,-0.86299 0.54216,-0.1764 1.09761,-0.56288 1.6309,-1.13275 z m -7.20473,0.47749 c -0.17544,0.0148 -0.36308,0.26003 -0.4681804,0.70177 -0.1203,0.50478 0.1074804,1.13429 0.1074804,1.13429 0,0 0.47676,-0.41715 0.59687,-0.9219 0.1203,-0.50483 0.0327,-0.84718 -0.16175,-0.90589 -0.0243,-0.007 -0.0494,-0.0104 -0.0744,-0.008 z m -4.1397904,0.36122 c -0.22679,0 -0.41031,0.30576 -0.41031,0.82837 0,0.5226 0.41031,1.06402 0.41031,1.06402 0,0 0.41031,-0.5414 0.41031,-1.06402 0,-0.5226 -0.18371,-0.82844 -0.41031,-0.82837 z m -4.88756,0.11627 c -0.0251,-0.002 -0.0501,4.2e-4 -0.0744,0.008 -0.19428,0.0587 -0.28205,0.4016 -0.16175,0.90641 0.12011,0.50475 0.59687,0.92191 0.59687,0.92191 0,0 0.22778,-0.62953 0.10748,-1.1343 -0.1051,-0.44172 -0.29273,-0.68681 -0.46819,-0.70177 z m 14.4595804,0.79892 c -0.10253,-1.1e-4 -0.20657,0.0103 -0.31006,0.0305 -0.41393,0.0808 -0.83553,0.31102 -1.19321,0.66869 -0.35767,0.35768 -0.58944,0.7803 -0.67024,1.19424 -0.0808,0.41393 -0.005,0.83723 0.28319,1.12552 0.28829,0.28829 0.71313,0.36553 1.12706,0.28473 0.41394,-0.0808 0.83553,-0.3136 1.19321,-0.67127 0.35768,-0.35768 0.58893,-0.77772 0.66973,-1.19166 0.0808,-0.41393 0.005,-0.84033 -0.28319,-1.12862 -0.21622,-0.21621 -0.50889,-0.31181 -0.81649,-0.31212 z m -7.0254104,0.0868 c -0.19996,-0.035 -0.3969,0.23788 -0.45579,0.75345 v 5e-4 c -0.0591,0.51554 0.24237,1.11311 0.24237,1.11311 0,0 0.42326,-0.47101 0.48214,-0.9865 0.0591,-0.51556 -0.0688,-0.84553 -0.26872,-0.88057 z m -4.8457,0.17261 c -0.22677,0 -0.41083,0.30574 -0.41083,0.82837 0,0.52257 0.41083,1.06402 0.41083,1.06402 0,0 0.41031,-0.54144 0.41031,-1.06402 0,-0.52263 -0.1837,-0.8284 -0.41031,-0.82837 z m 11.8690404,0.22065 c 0.20161,-0.001 0.36373,0.0595 0.4775,0.17312 0.15169,0.15169 0.21099,0.39091 0.15192,0.6935 -0.0591,0.30261 -0.24117,0.65046 -0.53691,0.94619 -0.29574,0.29574 -0.6436,0.47785 -0.9462,0.53693 -0.30259,0.0591 -0.54284,0.001 -0.69453,-0.15039 -0.15169,-0.15169 -0.20841,-0.3909 -0.14935,-0.69349 0.0591,-0.3026 0.2417,-0.64993 0.53744,-0.94568 0.29574,-0.29574 0.64308,-0.47837 0.94568,-0.53744 0.0756,-0.0148 0.14725,-0.0222 0.21445,-0.0227 z m -9.3715204,1.20923 c -0.22678,0 -0.41031,0.30576 -0.41031,0.82837 0,0.5226 0.41031,1.06402 0.41031,1.06402 0,0 0.41031,-0.54141 0.41031,-1.06402 0,-0.52261 -0.1837,-0.82845 -0.41031,-0.82837 z m 2.19264,0.91726 c -0.21865,-6e-5 -0.47468,0.31623 -0.60979,0.85731 h -5.03e-4 c -0.135299,0.54104 0.12092,1.10174 0.12092,1.10174 0,0 0.536161,-0.56075 0.67128,-1.10174 0.1353,-0.54109 0.0366,-0.85731 -0.1819,-0.85731 z m -6.30195,0.0667 c -0.19429,3e-5 -0.28204,0.31622 -0.16174,0.85731 0.1201,0.54101 0.59686,1.10226 0.59686,1.10226 0,0 0.22779,-0.56121 0.10749,-1.10226 h -5.29e-4 c -0.12012,-0.54108 -0.34773,-0.85737 -0.54209,-0.85731 z m 10.4417404,0.3266 c -0.1024,-2.3e-4 -0.20657,0.0103 -0.31005,0.0305 -0.41394,0.0808 -0.83709,0.31205 -1.19476,0.66973 -0.35767,0.35766 -0.5879,0.77928 -0.6687,1.19321 -0.0808,0.41394 -0.005,0.83722 0.28319,1.12551 0.28829,0.28829 0.71158,0.36399 1.12551,0.28319 0.41394,-0.0808 0.83554,-0.31051 1.19321,-0.66818 0.35768,-0.35768 0.58945,-0.78083 0.67025,-1.19476 0.0808,-0.41394 0.005,-0.83722 -0.28319,-1.12551 -0.21622,-0.21621 -0.50825,-0.31298 -0.81546,-0.31367 z m -8.2325704,0.16278 c -0.19992,0.035 -0.32782,0.365 -0.26872,0.88056 0.0589,0.51549 0.48215,0.98651 0.48215,0.98651 0,0 0.30146,-0.59756 0.24236,-1.11311 v -5.3e-4 c -0.0589,-0.51557 -0.25582,-0.78834 -0.45579,-0.75344 z m 8.2284404,0.31729 c 0.20238,-10e-4 0.36579,0.0595 0.47956,0.17313 0.15169,0.1517 0.20996,0.39192 0.15089,0.69452 -0.0591,0.3026 -0.24169,0.65046 -0.53743,0.94619 -0.29574,0.29573 -0.6436,0.47838 -0.9462,0.53745 -0.3026,0.0591 -0.54129,-2.4e-4 -0.69298,-0.15193 -0.15169,-0.1517 -0.211,-0.3909 -0.15193,-0.6935 0.0591,-0.3026 0.24119,-0.65047 0.53692,-0.94619 0.29574,-0.29574 0.6436,-0.47786 0.9462,-0.53693 0.0756,-0.0148 0.14751,-0.0222 0.21497,-0.0227 z m 0.22221,0.61908 a 0.19257354,0.19257354 0 0 0 -0.002,5.3e-4 0.19257354,0.19257354 0 0 0 -0.17157,0.15039 c -0.0188,0.079 -0.0482,0.13579 -0.0744,0.16381 a 0.19284837,0.19284837 0 1 0 0.28112,0.26407 c 0.0917,-0.098 0.13911,-0.21699 0.16795,-0.33796 a 0.19257354,0.19257354 0 0 0 -0.20102,-0.24083 z m -0.61702,0.79117 a 0.19257354,0.19257354 0 0 0 -0.0196,5.3e-4 0.19257354,0.19257354 0 0 0 -0.13074,0.0641 c -0.18203,0.19827 -0.38782,0.22491 -0.55087,0.2191 a 0.19257354,0.19257354 0 1 0 -0.014,0.38448 c 0.22987,0.008 0.57696,-0.0467 0.84956,-0.34365 a 0.19257354,0.19257354 0 0 0 -0.13436,-0.32453 z m -6.3701504,0.12041 c -0.22473,0.0304 -0.44667,0.3687 -0.51522,0.90537 -0.0688,0.53665 0.26666,1.03818 0.26666,1.03818 0,0 0.47818,-0.61161 0.54673,-1.14824 0.0687,-0.53669 -0.0736,-0.8258 -0.29817,-0.79531 z m 3.78995,1.09554 c -0.10241,-2.4e-4 -0.20658,0.01 -0.31006,0.03 -0.41394,0.0808 -0.83553,0.31101 -1.19321,0.66869 -0.35767,0.35766 -0.58892,0.78082 -0.66973,1.19476 -0.0808,0.41394 -0.005,0.83722 0.28319,1.12551 0.28829,0.28829 0.71158,0.36399 1.12551,0.28319 0.41395,-0.0808 0.83709,-0.31257 1.1947604,-0.67024 0.35768,-0.35768 0.58738,-0.77928 0.66818,-1.19321 0.0808,-0.41394 0.005,-0.83722 -0.28319,-1.12551 -0.21622,-0.21622 -0.50824,-0.31247 -0.8154504,-0.31316 z m -0.002,0.47955 c 0.2016014,-10e-4 0.3637214,0.06 0.4774904,0.17364 0.15169,0.15169 0.211,0.39038 0.15193,0.69298 -0.0591,0.3026 -0.2417,0.65045 -0.5374404,0.94619 -0.29573,0.29573 -0.643589,0.47837 -0.946189,0.53744 -0.3026,0.0591 -0.542841,6.4e-4 -0.69454,-0.1509 -0.151691,-0.15169 -0.208401,-0.39038 -0.149341,-0.69298 0.0591,-0.3026 0.2417,-0.65046 0.53744,-0.94619 0.29574,-0.29574 0.6436,-0.47837 0.94619,-0.53744 0.0756,-0.0148 0.147261,-0.0222 0.21446,-0.0227 z"
       style="color:#000000;font-style:normal;font-variant:normal;font-weight:normal;font-stretch:normal;font-size:medium;line-height:normal;font-family:sans-serif;font-variant-ligatures:normal;font-variant-position:normal;font-variant-caps:normal;font-variant-numeric:normal;font-variant-alternates:normal;font-feature-settings:normal;text-indent:0;text-align:start;text-decoration:none;text-decoration-line:none;text-decoration-style:solid;text-decoration-color:#000000;letter-spacing:normal;word-spacing:normal;text-transform:none;writing-mode:lr-tb;direction:ltr;text-orientation:mixed;dominant-baseline:auto;baseline-shift:baseline;text-anchor:start;white-space:normal;shape-padding:0;clip-rule:nonzero;display:inline;overflow:visible;visibility:visible;opacity:1;isolation:auto;mix-blend-mode:normal;color-interpolation:sRGB;color-interpolation-filters:linearRGB;solid-color:#000000;solid-opacity:1;vector-effect:none;fill:#ffffff;fill-opacity:1;fill-rule:nonzero;stroke:#ffffff;stroke-width:0.05291667;stroke-linecap:round;stroke-linejoin:miter;stroke-miterlimit:4;stroke-dasharray:none;stroke-dashoffset:0;stroke-opacity:1;color-rendering:auto;image-rendering:auto;shape-rendering:auto;text-rendering:auto;enable-background:accumulate" />
  </g>
</svg>
